<?xml version="1.0" encoding="UTF-8" standalone="no"?>
<!DOCTYPE svg PUBLIC "-//W3C//DTD SVG 1.1//EN" "http://www.w3.org/Graphics/SVG/1.1/DTD/svg11.dtd">
<svg width="100%" height="100%" viewBox="0 0 437 60" version="1.1" xmlns="http://www.w3.org/2000/svg" xmlns:xlink="http://www.w3.org/1999/xlink" xml:space="preserve" xmlns:serif="http://www.serif.com/" style="fill-rule:evenodd;clip-rule:evenodd;stroke-linecap:round;stroke-linejoin:round;stroke-miterlimit:1.5;">
    <g transform="matrix(1,0,0,1,-63.2046,-70.6985)">
        <g transform="matrix(1,0,0,1,50.1241,0)">
            <g transform="matrix(1,0,0,1,0,-90.4924)">
                <g transform="matrix(1,0,0,1,-24.5735,85.1071)">
                    <path d="M69.166,87.689C75.361,76.195 87.752,76.195 93.948,81.942C100.144,87.689 100.144,99.182 93.948,110.676C89.611,119.296 78.459,127.916 69.166,133.663C59.873,127.916 48.721,119.296 44.384,110.676C38.188,99.182 38.188,87.689 44.384,81.942C50.579,76.195 62.97,76.195 69.166,87.689Z" style="fill:white;stroke:white;stroke-width:4.17px;"/>
                </g>
                <g transform="matrix(1,0,0,1,50.2033,85.1071)">
                    <path d="M69.166,87.689C75.361,76.195 87.752,76.195 93.948,81.942C100.144,87.689 100.144,99.182 93.948,110.676C89.611,119.296 78.459,127.916 69.166,133.663C59.873,127.916 48.721,119.296 44.384,110.676C38.188,99.182 38.188,87.689 44.384,81.942C50.579,76.195 62.97,76.195 69.166,87.689Z" style="fill:white;stroke:white;stroke-width:4.17px;"/>
                </g>
                <g transform="matrix(1,0,0,1,124.98,85.1071)">
                    <path d="M69.166,87.689C75.361,76.195 87.752,76.195 93.948,81.942C100.144,87.689 100.144,99.182 93.948,110.676C89.611,119.296 78.459,127.916 69.166,133.663C59.873,127.916 48.721,119.296 44.384,110.676C38.188,99.182 38.188,87.689 44.384,81.942C50.579,76.195 62.97,76.195 69.166,87.689Z" style="fill:white;stroke:white;stroke-width:4.17px;"/>
                </g>
                <g transform="matrix(1,0,0,1,199.757,85.1071)">
                    <path d="M69.166,87.689C75.361,76.195 87.752,76.195 93.948,81.942C100.144,87.689 100.144,99.182 93.948,110.676C89.611,119.296 78.459,127.916 69.166,133.663C59.873,127.916 48.721,119.296 44.384,110.676C38.188,99.182 38.188,87.689 44.384,81.942C50.579,76.195 62.97,76.195 69.166,87.689Z" style="fill:white;stroke:white;stroke-width:4.17px;"/>
                </g>
                <g transform="matrix(1,0,0,1,274.534,85.1071)">
                    <path d="M69.166,87.689C75.361,76.195 87.752,76.195 93.948,81.942C100.144,87.689 100.144,99.182 93.948,110.676C89.611,119.296 78.459,127.916 69.166,133.663C59.873,127.916 48.721,119.296 44.384,110.676C38.188,99.182 38.188,87.689 44.384,81.942C50.579,76.195 62.97,76.195 69.166,87.689Z" style="fill:white;stroke:white;stroke-width:4.17px;"/>
                </g>
                <g transform="matrix(1,0,0,1,349.31,85.1071)">
                    <path d="M69.166,87.689C75.361,76.195 87.752,76.195 93.948,81.942C100.144,87.689 100.144,99.182 93.948,110.676C89.611,119.296 78.459,127.916 69.166,133.663C59.873,127.916 48.721,119.296 44.384,110.676C38.188,99.182 38.188,87.689 44.384,81.942C50.579,76.195 62.97,76.195 69.166,87.689Z" style="fill:white;stroke:white;stroke-width:4.17px;"/>
                </g>
            </g>
        </g>
    </g>
</svg>
