<?xml version="1.0" encoding="UTF-8" standalone="no"?><!DOCTYPE svg PUBLIC "-//W3C//DTD SVG 1.1//EN" "http://www.w3.org/Graphics/SVG/1.1/DTD/svg11.dtd"><svg width="100%" height="100%" viewBox="0 0 20 20" version="1.1" xmlns="http://www.w3.org/2000/svg" xmlns:xlink="http://www.w3.org/1999/xlink" xml:space="preserve" xmlns:serif="http://www.serif.com/" style="fill-rule:evenodd;clip-rule:evenodd;stroke-linejoin:round;stroke-miterlimit:2;"><path d="M9.241,3.172c0.077,-0.125 0.213,-0.201 0.359,-0.201c0.146,-0 0.282,0.076 0.359,0.201c0.63,1.025 1.902,3.093 2.253,3.663c0.058,0.095 0.151,0.163 0.26,0.189c0.65,0.157 3.01,0.728 4.18,1.01c0.142,0.035 0.257,0.14 0.302,0.28c0.045,0.139 0.015,0.292 -0.08,0.403c-0.78,0.917 -2.355,2.765 -2.788,3.275c-0.073,0.084 -0.108,0.194 -0.1,0.305c0.052,0.667 0.239,3.088 0.331,4.288c0.012,0.146 -0.054,0.288 -0.172,0.374c-0.119,0.086 -0.273,0.104 -0.409,0.048c-1.112,-0.459 -3.357,-1.385 -3.975,-1.64c-0.103,-0.042 -0.219,-0.042 -0.322,0c-0.618,0.255 -2.863,1.181 -3.975,1.64c-0.136,0.056 -0.29,0.038 -0.409,-0.048c-0.118,-0.086 -0.184,-0.228 -0.172,-0.374c0.092,-1.2 0.279,-3.621 0.331,-4.288c0.008,-0.111 -0.027,-0.221 -0.1,-0.305c-0.433,-0.51 -2.008,-2.358 -2.788,-3.275c-0.095,-0.111 -0.125,-0.264 -0.08,-0.403c0.045,-0.14 0.16,-0.245 0.302,-0.28c1.17,-0.282 3.53,-0.853 4.18,-1.01c0.109,-0.026 0.202,-0.094 0.26,-0.189c0.351,-0.57 1.623,-2.638 2.253,-3.663Z" style="fill:#fff;"/></svg>