<?xml version="1.0" encoding="UTF-8" standalone="no"?>
<!DOCTYPE svg PUBLIC "-//W3C//DTD SVG 1.1//EN" "http://www.w3.org/Graphics/SVG/1.1/DTD/svg11.dtd">
<svg width="100%" height="100%" viewBox="0 0 80 80" version="1.1" xmlns="http://www.w3.org/2000/svg" xmlns:xlink="http://www.w3.org/1999/xlink" xml:space="preserve" xmlns:serif="http://www.serif.com/" style="fill-rule:evenodd;clip-rule:evenodd;stroke-linejoin:round;stroke-miterlimit:2;">
    <g transform="matrix(0.877054,0,0,0.877054,1.39873,4.89749)">
        <path d="M16.881,59.903L17.422,60.8C18.65,62.834 19.311,65.159 19.336,67.534C19.352,68.947 19.366,70.233 19.366,70.233L23.497,67.519C25.119,66.45 27.282,66.45 31.155,66.45L31.133,66.44C31.348,66.447 31.565,66.45 31.783,66.45L48.521,66.45C59.695,66.45 68.753,57.392 68.753,46.218L68.753,46.215C68.753,35.041 59.695,25.983 48.521,25.983L31.783,25.983C20.609,25.983 11.551,35.041 11.551,46.215L11.551,46.218C11.551,51.496 13.571,56.301 16.881,59.903ZM43.844,45.645C43.844,44.257 42.719,43.133 41.332,43.132C40.668,43.132 39.951,43.132 39.287,43.132C37.9,43.133 36.775,44.257 36.775,45.645C36.775,47.153 36.775,49.064 36.775,50.572C36.775,51.959 37.9,53.084 39.287,53.084C39.951,53.084 40.668,53.084 41.332,53.084C42.719,53.084 43.844,51.959 43.844,50.572C43.844,49.064 43.844,47.153 43.844,45.645ZM32.321,45.645C32.321,44.257 31.196,43.133 29.809,43.132C29.145,43.132 28.428,43.132 27.764,43.132C26.377,43.133 25.252,44.257 25.252,45.645C25.252,47.153 25.252,49.064 25.252,50.572C25.252,51.959 26.377,53.084 27.764,53.084C28.428,53.084 29.145,53.084 29.809,53.084C31.196,53.084 32.321,51.959 32.321,50.572C32.321,49.064 32.321,47.153 32.321,45.645ZM55.367,45.645C55.367,44.257 54.242,43.133 52.855,43.132C52.191,43.132 51.474,43.132 50.811,43.132C49.423,43.133 48.298,44.257 48.298,45.645C48.298,47.153 48.298,49.064 48.298,50.572C48.298,51.959 49.423,53.084 50.811,53.084C51.474,53.084 52.191,53.084 52.855,53.084C54.242,53.084 55.367,51.959 55.367,50.572C55.367,49.064 55.367,47.153 55.367,45.645Z" style="fill:white;"/>
    </g>
    <g transform="matrix(0.883079,0,0,0.883079,7.59729,2.21464)">
        <path d="M27.988,24.968C30.236,18.032 36.749,13.017 44.433,13.017L58.732,13.017C68.277,13.017 76.015,20.755 76.015,30.301L76.015,30.303C76.015,34.811 74.289,38.916 71.462,41.993L70.999,42.76C69.951,44.497 69.386,46.483 69.364,48.512C69.351,49.719 69.339,50.818 69.339,50.818L65.81,48.499C65.56,48.335 65.296,48.2 65.01,48.09C65.145,47.147 65.215,46.182 65.215,45.201L65.215,45.198C65.215,41.885 64.419,38.758 63.007,35.997C61.204,32.693 59.708,31.144 58.272,29.942C54.717,26.843 50.07,24.966 44.983,24.966L28.245,24.966C28.159,24.966 28.073,24.967 27.988,24.968Z" style="fill:white;fill-opacity:0.3;"/>
    </g>
</svg>
