<?xml version="1.0" encoding="UTF-8" standalone="no"?>
<!DOCTYPE svg PUBLIC "-//W3C//DTD SVG 1.1//EN" "http://www.w3.org/Graphics/SVG/1.1/DTD/svg11.dtd">
<svg width="100%" height="100%" viewBox="0 0 64 64" version="1.1" xmlns="http://www.w3.org/2000/svg" xmlns:xlink="http://www.w3.org/1999/xlink" xml:space="preserve" xmlns:serif="http://www.serif.com/" style="fill-rule:evenodd;clip-rule:evenodd;stroke-linejoin:round;stroke-miterlimit:2;">
    <g transform="matrix(1.22372,0,0,1.09485,-2.53823,-3.75396)">
        <rect x="24.175" y="18.717" width="21.26" height="7.704" style="fill:white;fill-opacity:0.6;"/>
    </g>
    <g transform="matrix(1.11342,0,0,0.701173,-1.16125,10.3571)">
        <path d="M53.295,20.106C53.295,17.795 52.115,15.921 50.66,15.921C45.52,15.921 34.325,15.921 30.536,15.921C29.725,15.921 28.96,15.329 28.461,14.316C27.562,12.492 26.103,9.534 25.205,7.71C24.705,6.697 23.94,6.105 23.129,6.105C20.178,6.105 12.86,6.105 8.906,6.105C7.451,6.105 6.271,7.978 6.271,10.289C6.271,19.632 6.271,42.101 6.271,51.444C6.271,53.755 7.451,55.629 8.906,55.629C17.154,55.629 42.413,55.629 50.66,55.629C52.115,55.629 53.295,53.755 53.295,51.444C53.295,43.816 53.295,27.734 53.295,20.106Z" style="fill:white;"/>
    </g>
</svg>
