<?xml version="1.0" encoding="UTF-8" standalone="no"?><!DOCTYPE svg PUBLIC "-//W3C//DTD SVG 1.1//EN" "http://www.w3.org/Graphics/SVG/1.1/DTD/svg11.dtd"><svg width="100%" height="100%" viewBox="0 0 20 20" version="1.1" xmlns="http://www.w3.org/2000/svg" xmlns:xlink="http://www.w3.org/1999/xlink" xml:space="preserve" xmlns:serif="http://www.serif.com/" style="fill-rule:evenodd;clip-rule:evenodd;stroke-linejoin:round;stroke-miterlimit:2;"><path d="M8.276,17.132l0.236,0.037c0.076,0.028 0.154,0.054 0.235,0.079c-0.152,-0.03 -0.309,-0.069 -0.471,-0.116Z" style="fill:#656565;"/><path d="M6.316,15.423l-0.27,-0.547l0.27,0.547Z" style="fill:#656565;"/><path d="M5.99,14.717l-0.13,-0.455l0.13,0.455Z" style="fill:#656565;"/><path d="M5.763,13.442l0.06,0.641l-0.06,-0.641c0,-0.129 0.006,-0.256 0.019,-0.381l-0.019,0.381Z" style="fill:#656565;"/><path d="M5.8,12.936l0.035,-0.238l0.002,-0.005l-0.037,0.243Z" style="fill:#656565;"/><path d="M6.047,11.994l-0.011,0.03l0.007,-0.022l0.004,-0.008Z" style="fill:#656565;"/><path d="M6.385,11.352l-0.201,0.379l0.188,-0.362l0.013,-0.017Z" style="fill:#656565;"/><path d="M6.829,10.793l-0.254,0.317l0.233,-0.298l0.021,-0.019Z" style="fill:#656565;"/><path d="M7.369,10.327l-0.301,0.256l0.271,-0.238l0.03,-0.018Z" style="fill:#656565;"/><path d="M7.99,9.967l-0.341,0.193l0.301,-0.179l0.04,-0.014Z" style="fill:#656565;"/><path d="M8.677,9.726l-0.095,0.027l0.046,-0.017l0.049,-0.01Z" style="fill:#656565;"/><path d="M9.041,9.656l-0.189,0.034l0.135,-0.028l0.054,-0.006Z" style="fill:#656565;"/><path d="M9.396,9.623l-0.174,0.014l0.136,-0.015l0.038,0.001Z" style="fill:#656565;"/><path d="M11.804,8.93l-0.021,0.012l0.226,-0.186l-0.205,0.174Z" style="fill:#656565;"/><path d="M12.353,8.463l-0.018,0.015l0.229,-0.278l-0.211,0.263Z" style="fill:#656565;"/><path d="M12.805,7.901l-0.007,0.009l0.02,-0.033l-0.013,0.024Z" style="fill:#656565;"/><path d="M13.147,7.258l-0.005,0.009l0.069,-0.187l-0.064,0.178Z" style="fill:#656565;"/><path d="M13.271,6.912l-0.004,0.01l0.055,-0.214l-0.051,0.204Z" style="fill:#656565;"/><path d="M13.362,6.551l-0.002,0.007l0.038,-0.249l-0.036,0.242Z" style="fill:#656565;"/><path d="M13.405,5.322c0.022,0.154 0.032,0.311 0.032,0.471c-0,0.131 -0.007,0.26 -0.02,0.388l0.02,-0.388c-0,-0.16 -0.01,-0.317 -0.032,-0.471Z" style="fill:#656565;"/><path d="M8.348,17.143c-3.627,-0.59 -6.397,-3.743 -6.397,-7.538c0,-3.95 3.001,-7.204 6.845,-7.607l0.779,-0.042l0.076,0.003c1.434,0.017 2.68,0.824 3.322,2.006l0.138,0.285c0.149,0.334 0.25,0.693 0.294,1.069l0.032,0.474l-0.02,0.388l-0.057,0.377l-0.038,0.15l-0.055,0.214l-0.056,0.158l-0.069,0.187l-0.324,0.61l-0.02,0.033l-0.234,0.29l-0.229,0.278l-0.326,0.278l-0.226,0.186c-0.587,0.409 -1.295,0.655 -2.059,0.675l-0.248,0l-0.08,0.006l-0.038,-0.001l-0.136,0.015l-0.127,0.01l-0.054,0.009l-0.054,0.006l-0.135,0.028l-0.127,0.022l-0.048,0.014l-0.049,0.01l-0.046,0.017c-0.205,0.055 -0.403,0.126 -0.592,0.214l-0.04,0.014l-0.301,0.179l-0.253,0.144l-0.027,0.023l-0.03,0.018l-0.271,0.238l-0.221,0.189l-0.018,0.021l-0.021,0.019l-0.233,0.298l-0.18,0.224l-0.01,0.018l-0.013,0.017l-0.188,0.362l-0.131,0.245l-0.006,0.018l-0.004,0.008l-0.007,0.022c-0.086,0.214 -0.153,0.438 -0.199,0.669l-0.002,0.005l-0.053,0.359l0,0.004c-0.013,0.125 -0.019,0.252 -0.019,0.381c0,0.181 0.013,0.359 0.037,0.533l0.001,0.005l0.035,0.168l0.069,0.329l0.003,0.009l0.002,0.009l0.067,0.187l0.098,0.275l0.006,0.013l0.005,0.012l0.095,0.183l0.123,0.24l0.011,0.015l0.008,0.016c0.078,0.127 0.163,0.25 0.256,0.366l0.01,0.015l0.065,0.072l0.188,0.215l0.047,0.044l0.034,0.038l0.088,0.074l0.141,0.131l0.088,0.065l0.063,0.053l0.08,0.052l0.11,0.081l0.14,0.08l0.09,0.058l-0.035,-0.026c0.425,0.249 0.904,0.413 1.415,0.474l-0.718,-0.079l-0.037,-0.006Z" style="fill:#fff;"/><path d="M8.348,17.143l0.037,0.006l-0.02,-0.003l-0.017,-0.003Z" style="fill:#fff;"/><path d="M7.633,16.722l0.055,0.032l0.035,0.026l-0.09,-0.058Z" style="fill:#fff;"/><path d="M7.24,16.456l0.143,0.105l-0.08,-0.052l-0.063,-0.053Z" style="fill:#fff;"/><path d="M6.889,16.148l0.122,0.112l-0.088,-0.074l-0.034,-0.038Z" style="fill:#fff;"/><path d="M6.579,15.802l0.075,0.087l-0.065,-0.072l-0.01,-0.015Z" style="fill:#fff;"/><path d="M6.181,15.165l0.134,0.255l-0.011,-0.015l-0.123,-0.24Z" style="fill:#fff;"/><path d="M5.977,14.682l0.104,0.288l-0.006,-0.013l-0.098,-0.275Z" style="fill:#fff;"/><path d="M5.836,14.148l0.072,0.338l-0.003,-0.009l-0.069,-0.329Z" style="fill:#fff;"/><path d="M5.782,13.061c-0.013,0.125 -0.019,0.252 -0.019,0.381l0.037,0.533c-0.024,-0.174 -0.037,-0.352 -0.037,-0.533c0,-0.128 0.006,-0.253 0.018,-0.378l0.001,-0.003Z" style="fill:#fff;"/><path d="M8.677,9.726l-0.034,0.007l0.034,-0.007Z" style="fill:#fff;"/><path d="M8.958,9.668l-0.106,0.022l0.106,-0.022Z" style="fill:#fff;"/><path d="M12.798,7.91l0.02,-0.033l-0.02,0.033Z" style="fill:#fff;"/><path d="M13.211,7.08l-0.069,0.187l0.069,-0.187Z" style="fill:#fff;"/><path d="M13.322,6.708l-0.055,0.214l0.055,-0.214Z" style="fill:#fff;"/><path d="M13.405,5.319l0.032,0.474l-0.02,0.388l0.02,-0.388c-0,-0.161 -0.01,-0.319 -0.032,-0.474Z" style="fill:#fff;"/><path d="M9.651,1.959l-0.051,-0.003c4.221,0 7.649,3.427 7.649,7.649c-0,4.054 -3.162,7.376 -7.152,7.623c-0.481,0.03 -0.67,0.023 -0.994,0c-0.524,-0.063 -1.014,-0.233 -1.444,-0.496c-2.6,-1.735 -1.471,-5.815 1.088,-6.009c1.18,-0.09 2.285,0.018 3.676,-1.466c1.619,-1.727 1.014,-3.994 1.014,-3.994l-0.035,0.008l0.003,0.051c-0.043,-0.358 -0.136,-0.701 -0.27,-1.022l-0.162,-0.335c-0.642,-1.182 -1.888,-1.99 -3.322,-2.006Z" style="fill:#fff;fill-opacity:0.6;"/><path d="M7.14,16.37l0.115,0.098l-0.037,-0.024l-0.078,-0.074Z" style="fill:#fff;fill-opacity:0.6;"/><path d="M6.678,15.915l0.122,0.135l-0.074,-0.07l-0.048,-0.065Z" style="fill:#fff;fill-opacity:0.6;"/><path d="M6.363,15.49l-0.04,-0.054l-0.007,-0.013l0.047,0.067Z" style="fill:#fff;fill-opacity:0.6;"/><path d="M5.99,14.717l0.056,0.159l-0.026,-0.053l-0.03,-0.106Z" style="fill:#fff;fill-opacity:0.6;"/><path d="M5.823,14.083l0.037,0.179l-0.031,-0.108l-0.006,-0.071Z" style="fill:#fff;fill-opacity:0.6;"/><path d="M5.837,12.693l0.199,-0.669l-0.199,0.669Z" style="fill:#fff;fill-opacity:0.6;"/><path d="M6.829,10.793l0.239,-0.21l-0.239,0.21Z" style="fill:#fff;fill-opacity:0.6;"/><path d="M7.369,10.327l0.28,-0.167l-0.28,0.167Z" style="fill:#fff;fill-opacity:0.6;"/><path d="M8.852,9.69l-0.175,0.036l0.175,-0.036Z" style="fill:#fff;fill-opacity:0.6;"/><path d="M11.783,8.942c-0.508,0.358 -1.108,0.591 -1.757,0.663c0.649,-0.071 1.249,-0.305 1.757,-0.663Z" style="fill:#fff;fill-opacity:0.6;"/><path d="M12.798,7.91l-0.008,0.013l0.008,-0.013Z" style="fill:#fff;fill-opacity:0.6;"/><path d="M12.818,7.877c0.122,-0.186 0.228,-0.384 0.317,-0.591l-0.162,0.335l-0.155,0.256Z" style="fill:#fff;fill-opacity:0.6;"/><path d="M6.385,11.352l0.19,-0.242l0.254,-0.317l0.239,-0.21l0.301,-0.256l0.28,-0.167l0.341,-0.193l0.592,-0.214l0.095,-0.027l0.175,-0.036l0.189,-0.034l0.181,-0.019l0.174,-0.014l0.204,0.007c0.203,-0 0.402,-0.016 0.597,-0.047c0.572,-0.089 1.102,-0.306 1.558,-0.624l0.049,-0.029l0.205,-0.174l0.304,-0.251l0.022,-0.027l0.018,-0.015l0.211,-0.263l0.217,-0.262l0.017,-0.028l0.007,-0.009l0.013,-0.024c0.126,-0.192 0.234,-0.396 0.324,-0.61l0.005,-0.009l0.064,-0.178l0.053,-0.147l0.007,-0.021l0.051,-0.204l0.037,-0.142l0.003,-0.015l0.055,-0.366l0,-0.004c0.013,-0.128 0.02,-0.257 0.02,-0.388c-0,-0.16 -0.01,-0.317 -0.032,-0.471l-0.003,-0.051l0.035,-0.008c-0,0 0.605,2.267 -1.014,3.994c-1.391,1.484 -2.496,1.376 -3.676,1.466c-2.559,0.194 -3.688,4.274 -1.088,6.009l-0.384,-0.251l-0.035,-0.025l-0.1,-0.086l-0.34,-0.32l-0.122,-0.135l-0.315,-0.425l-0.047,-0.067l-0.27,-0.547l-0.056,-0.159l-0.13,-0.455l-0.037,-0.179l-0.06,-0.641l0.019,-0.381l0.055,-0.368l0.199,-0.669l0.011,-0.03l0.137,-0.263l0.201,-0.379Z" style="fill:#fff;fill-opacity:0.3;"/><path d="M7.24,16.456l0.035,0.025l-0.02,-0.013l-0.015,-0.012Z" style="fill:#fff;fill-opacity:0.6;"/><path d="M7.269,16.477l0.05,0.044l0.06,0.037l0.114,0.084l0.369,0.212c-0,-0 0.393,0.17 0.393,0.17l0.137,0.042l0.068,0.027l0.07,0.015c0.184,0.058 0.376,0.097 0.573,0.12l-0.573,-0.12l-0.138,-0.042l-0.53,-0.212c-0,-0 -0.216,-0.133 -0.216,-0.133l0.013,0.011l-0.059,-0.039l-0.221,-0.135l-0.104,-0.077l-0.006,-0.004Z" style="fill:#fff;fill-opacity:0.6;"/><path d="M6.564,15.785l0.278,0.319c0.123,0.128 0.255,0.246 0.398,0.352l-0.1,-0.086l-0.08,-0.075l-0.218,-0.191l-0.278,-0.319c-0.086,-0.111 -0.167,-0.228 -0.241,-0.349c0.074,0.121 0.155,0.238 0.241,0.349Z" style="fill:#fff;fill-opacity:0.6;"/><path d="M6.036,12.024l-0.115,0.328c-0.033,0.111 -0.061,0.225 -0.084,0.341l0.199,-0.669Z" style="fill:#fff;fill-opacity:0.6;"/><path d="M6.184,11.731l-0.137,0.263l0.006,-0.018l0.131,-0.245Z" style="fill:#fff;fill-opacity:0.6;"/><path d="M6.575,11.11l-0.19,0.242l0.01,-0.018l0.18,-0.224Z" style="fill:#fff;fill-opacity:0.6;"/><path d="M7.068,10.583l-0.239,0.21l0.018,-0.021l0.221,-0.189Z" style="fill:#fff;fill-opacity:0.6;"/><path d="M7.649,10.16l-0.28,0.167l0.027,-0.023l0.253,-0.144Z" style="fill:#fff;fill-opacity:0.6;"/><path d="M8.582,9.753c-0.103,0.026 -0.204,0.057 -0.302,0.093c-0.099,0.036 -0.196,0.077 -0.29,0.121l0.592,-0.214Z" style="fill:#fff;fill-opacity:0.6;"/><path d="M8.852,9.69l-0.175,0.036l0.048,-0.014l0.127,-0.022Z" style="fill:#fff;fill-opacity:0.6;"/><path d="M9.222,9.637l-0.181,0.019l0.054,-0.009l0.127,-0.01Z" style="fill:#fff;fill-opacity:0.6;"/><path d="M11.296,9.233c-0.177,0.072 -0.354,0.144 -0.531,0.216l-0.568,0.134l-0.597,0.047l-0.204,-0.007l0.08,-0.006l0.248,0c0.764,-0.02 1.472,-0.266 2.059,-0.675l-0.487,0.291Z" style="fill:#fff;fill-opacity:0.6;"/><path d="M12.313,8.505l-0.304,0.251l0.326,-0.278l-0.022,0.027Z" style="fill:#fff;fill-opacity:0.6;"/><path d="M12.781,7.938l-0.217,0.262l0.234,-0.29l-0.017,0.028Z" style="fill:#fff;fill-opacity:0.6;"/><path d="M13.264,6.933l-0.053,0.147l0.056,-0.158l-0.003,0.011Z" style="fill:#fff;fill-opacity:0.6;"/><path d="M13.359,6.566l-0.037,0.142l0.038,-0.15l-0.001,0.008Z" style="fill:#fff;fill-opacity:0.6;"/><path d="M13.417,6.185l-0.019,0.124l0.019,-0.128l0,0.004Z" style="fill:#fff;fill-opacity:0.6;"/><path d="M9.651,1.959c0.717,0.008 1.387,0.214 1.958,0.566c0.571,0.351 1.043,0.849 1.364,1.44c-0.642,-1.182 -1.888,-1.989 -3.322,-2.006Z" style="fill:#fff;fill-opacity:0.6;"/><path d="M7.6,16.693l0.046,0.028l0.013,0.011l-0.059,-0.039Z" style="fill:#fff;fill-opacity:0.6;"/><path d="M7.06,16.295l0.206,0.179l0.009,0.007l-0.006,-0.004l-0.003,-0.003l-0.026,-0.018l-0.1,-0.086l-0.08,-0.075Z" style="fill:#fff;fill-opacity:0.6;"/><path d="M6.036,12.024l-0.068,0.228l0.068,-0.228Z" style="fill:#fff;fill-opacity:0.6;"/><path d="M6.385,11.352l0.118,-0.151l-0.118,0.151Z" style="fill:#fff;fill-opacity:0.6;"/><path d="M8.742,9.712l0.11,-0.022l-0.11,0.022Z" style="fill:#fff;fill-opacity:0.6;"/><path d="M11.755,8.959l-0.459,0.274c-0.177,0.072 -0.354,0.144 -0.531,0.216l-0.568,0.134c0.572,-0.089 1.102,-0.307 1.558,-0.624Z" style="fill:#fff;fill-opacity:0.6;"/><path d="M13.264,6.933l-0.053,0.147l0.053,-0.147Z" style="fill:#fff;fill-opacity:0.6;"/><path d="M13.359,6.566l-0.037,0.142l0.037,-0.142Z" style="fill:#fff;fill-opacity:0.6;"/><path d="M13.417,6.181l0,0.004l0,-0.004Z" style="fill:#fff;fill-opacity:0.6;"/></svg>