<?xml version="1.0" encoding="UTF-8" standalone="no"?><!DOCTYPE svg PUBLIC "-//W3C//DTD SVG 1.1//EN" "http://www.w3.org/Graphics/SVG/1.1/DTD/svg11.dtd"><svg width="100%" height="100%" viewBox="0 0 20 20" version="1.1" xmlns="http://www.w3.org/2000/svg" xmlns:xlink="http://www.w3.org/1999/xlink" xml:space="preserve" xmlns:serif="http://www.serif.com/" style="fill-rule:evenodd;clip-rule:evenodd;stroke-linejoin:round;stroke-miterlimit:2;"><path d="M6.998,3.697c-0,0.407 0.329,0.737 0.736,0.737c1.293,-0 3.954,-0 5.246,-0c0.407,-0 0.736,0.33 0.736,0.736l0,7.143c0,0.407 0.33,0.737 0.737,0.737l1.696,-0c0.407,-0 0.737,-0.33 0.737,-0.737l0,-9.553c0,-0.407 -0.33,-0.737 -0.737,-0.737l-8.415,0c-0.407,0 -0.736,0.33 -0.736,0.737c-0,0.297 -0,0.64 -0,0.937Z" style="fill:#fff;fill-opacity:0.6;"/><path d="M12.466,6.152c0,-0.406 -0.329,-0.736 -0.736,-0.736l-8.415,-0c-0.407,-0 -0.737,0.33 -0.737,0.736l0,9.554c0,0.407 0.33,0.737 0.737,0.737l8.415,-0c0.407,-0 0.736,-0.33 0.736,-0.737l0,-9.554Z" style="fill:#fff;"/></svg>