<?xml version="1.0" encoding="UTF-8" standalone="no"?><!DOCTYPE svg PUBLIC "-//W3C//DTD SVG 1.1//EN" "http://www.w3.org/Graphics/SVG/1.1/DTD/svg11.dtd"><svg width="100%" height="100%" viewBox="0 0 20 20" version="1.1" xmlns="http://www.w3.org/2000/svg" xmlns:xlink="http://www.w3.org/1999/xlink" xml:space="preserve" xmlns:serif="http://www.serif.com/" style="fill-rule:evenodd;clip-rule:evenodd;stroke-linejoin:round;stroke-miterlimit:2;"><circle cx="2.679" cy="10.888" r="0.945" style="fill:#fff;fill-opacity:0.6;"/><path d="M7.784,8.689c1.214,-0 2.199,0.985 2.199,2.199c0,1.214 -0.985,2.199 -2.199,2.199c-1.214,0 -2.199,-0.985 -2.199,-2.199c0,-1.214 0.985,-2.199 2.199,-2.199Zm0,0.889c0.723,0 1.31,0.587 1.31,1.31c0,0.723 -0.587,1.31 -1.31,1.31c-0.723,-0 -1.31,-0.587 -1.31,-1.31c0,-0.723 0.587,-1.31 1.31,-1.31Z" style="fill:#fff;"/><circle cx="12.675" cy="10.888" r="0.945" style="fill:#fff;fill-opacity:0.6;"/><circle cx="16.284" cy="10.888" r="0.945" style="fill:#fff;fill-opacity:0.3;"/><path d="M5.037,10.632c0,-0.094 -0.076,-0.171 -0.171,-0.171l-0.759,0c-0.094,0 -0.171,0.077 -0.171,0.171l-0,0.342c-0,0.095 0.077,0.171 0.171,0.171l0.759,0c0.095,0 0.171,-0.076 0.171,-0.171l0,-0.342Z" style="fill:#fff;fill-opacity:0.6;"/><path d="M11.443,10.632c-0,-0.094 -0.077,-0.171 -0.171,-0.171l-0.76,0c-0.094,0 -0.171,0.077 -0.171,0.171l0,0.342c0,0.095 0.077,0.171 0.171,0.171l0.76,0c0.094,0 0.171,-0.076 0.171,-0.171l-0,-0.342Z" style="fill:#fff;fill-opacity:0.6;"/><path d="M15.064,10.632c-0,-0.094 -0.077,-0.171 -0.171,-0.171l-0.759,0c-0.095,0 -0.171,0.077 -0.171,0.171l-0,0.342c-0,0.095 0.076,0.171 0.171,0.171l0.759,0c0.094,0 0.171,-0.076 0.171,-0.171l-0,-0.342Z" style="fill:#fff;fill-opacity:0.3;"/></svg>