<?xml version="1.0" encoding="UTF-8" standalone="no"?><!DOCTYPE svg PUBLIC "-//W3C//DTD SVG 1.1//EN" "http://www.w3.org/Graphics/SVG/1.1/DTD/svg11.dtd"><svg width="100%" height="100%" viewBox="0 0 20 20" version="1.1" xmlns="http://www.w3.org/2000/svg" xmlns:xlink="http://www.w3.org/1999/xlink" xml:space="preserve" xmlns:serif="http://www.serif.com/" style="fill-rule:evenodd;clip-rule:evenodd;stroke-linejoin:round;stroke-miterlimit:1.5;"><path d="M7.14,10.001l0,-2.995c0,-0.604 0.259,-1.182 0.721,-1.608c0.461,-0.427 1.087,-0.667 1.739,-0.667c0.652,0 1.278,0.24 1.739,0.667c0.462,0.426 0.721,1.004 0.721,1.608l-0,2.995l2.951,0l0,-3.082c0,-1.327 -0.57,-2.6 -1.585,-3.538c-1.014,-0.938 -2.391,-1.466 -3.826,-1.466c-0,0 -0,0 -0,0c-1.435,0 -2.812,0.528 -3.826,1.466c-1.015,0.938 -1.585,2.211 -1.585,3.538c-0,2.872 -0,3.082 -0,3.082l2.951,0Z" style="fill:#fff;stroke:#000;stroke-opacity:0;stroke-width:1.6px;"/><path d="M15.995,10.79c0,-0.435 -0.353,-0.789 -0.788,-0.789l-11.214,0c-0.435,0 -0.788,0.354 -0.788,0.789l-0,5.7c-0,0.435 0.353,0.789 0.788,0.789l11.214,-0c0.435,-0 0.788,-0.354 0.788,-0.789l0,-5.7Zm-5.14,1.282c0,-0.171 -0.068,-0.335 -0.189,-0.456c-0.12,-0.12 -0.284,-0.188 -0.455,-0.188c-0.375,-0 -0.847,-0 -1.222,-0c-0.171,-0 -0.335,0.068 -0.455,0.188c-0.121,0.121 -0.189,0.285 -0.189,0.456c-0,0.839 -0,2.298 -0,3.137c-0,0.17 0.068,0.334 0.189,0.455c0.12,0.121 0.284,0.189 0.455,0.189c0.375,-0 0.847,-0 1.222,-0c0.171,-0 0.335,-0.068 0.455,-0.189c0.121,-0.121 0.189,-0.285 0.189,-0.455c0,-0.839 0,-2.298 0,-3.137Z" style="fill:#fff;fill-opacity:0.6;"/></svg>