<?xml version="1.0" encoding="UTF-8" standalone="no"?><!DOCTYPE svg PUBLIC "-//W3C//DTD SVG 1.1//EN" "http://www.w3.org/Graphics/SVG/1.1/DTD/svg11.dtd"><svg width="100%" height="100%" viewBox="0 0 20 20" version="1.1" xmlns="http://www.w3.org/2000/svg" xmlns:xlink="http://www.w3.org/1999/xlink" xml:space="preserve" xmlns:serif="http://www.serif.com/" style="fill-rule:evenodd;clip-rule:evenodd;stroke-linejoin:round;stroke-miterlimit:2;"><path d="M15.819,5.238c0,-0.207 -0.168,-0.375 -0.375,-0.375l-11.711,0c-0.207,0 -0.375,0.168 -0.375,0.375l0,0.792c0,0.207 0.168,0.375 0.375,0.375l11.711,-0c0.207,-0 0.375,-0.168 0.375,-0.375l0,-0.792Z" style="fill:#fff;fill-opacity:0.3;"/><path d="M14.4,3.196c-0,-0.101 -0.083,-0.184 -0.184,-0.184l-9.255,0c-0.101,0 -0.184,0.083 -0.184,0.184l0,0.39c0,0.101 0.083,0.184 0.184,0.184l9.255,-0c0.101,-0 0.184,-0.083 0.184,-0.184l-0,-0.39Z" style="fill:#fff;fill-opacity:0.3;"/><path d="M1.906,7.489l0,8.731c0,0.584 0.475,1.059 1.059,1.059l13.247,-0c0.584,-0 1.059,-0.475 1.059,-1.059l-0,-7.332c-0,-0.584 -0.475,-1.059 -1.059,-1.059l-5.426,0c-0.09,0 -0.177,-0.035 -0.241,-0.099c-0.064,-0.064 -0.099,-0.151 -0.099,-0.241l-0,-0c-0,-0.353 -0.287,-0.639 -0.64,-0.639l-7.261,-0c-0.352,-0 -0.639,0.286 -0.639,0.639Z" style="fill:#fff;fill-opacity:0.6;"/><path d="M8.274,15.406c0.276,0 0.5,-0.224 0.5,-0.5l-0,-4.704c-0,-0.276 -0.224,-0.5 -0.5,-0.5l-0.713,-0c-0.276,-0 -0.5,0.224 -0.5,0.5l-0,4.704c-0,0.276 0.224,0.5 0.5,0.5l0.713,0Z" style="fill:#fff;"/><path d="M15.082,15.406c0.276,0 0.5,-0.224 0.5,-0.5l0,-4.704c0,-0.276 -0.224,-0.5 -0.5,-0.5l-0.713,-0c-0.276,-0 -0.5,0.224 -0.5,0.5l-0,4.704c-0,0.276 0.224,0.5 0.5,0.5l0.713,0Z" style="fill:#fff;"/><path d="M4.808,15.406c0.276,0 0.5,-0.224 0.5,-0.5l0,-4.704c0,-0.276 -0.224,-0.5 -0.5,-0.5l-0.713,-0c-0.276,-0 -0.5,0.224 -0.5,0.5l0,4.704c0,0.276 0.224,0.5 0.5,0.5l0.713,0Z" style="fill:#fff;"/><path d="M11.616,15.406c0.276,0 0.5,-0.224 0.5,-0.5l0,-4.704c0,-0.276 -0.224,-0.5 -0.5,-0.5l-0.713,-0c-0.276,-0 -0.5,0.224 -0.5,0.5l0,4.704c0,0.276 0.224,0.5 0.5,0.5l0.713,0Z" style="fill:#fff;"/></svg>