<?xml version="1.0" encoding="UTF-8" standalone="no"?><!DOCTYPE svg PUBLIC "-//W3C//DTD SVG 1.1//EN" "http://www.w3.org/Graphics/SVG/1.1/DTD/svg11.dtd"><svg width="100%" height="100%" viewBox="0 0 20 20" version="1.1" xmlns="http://www.w3.org/2000/svg" xmlns:xlink="http://www.w3.org/1999/xlink" xml:space="preserve" xmlns:serif="http://www.serif.com/" style="fill-rule:evenodd;clip-rule:evenodd;stroke-linejoin:round;stroke-miterlimit:2;"><path d="M4.624,16.719c-0,0 1.059,-5.369 1.462,-7.417c0.083,-0.422 0.454,-0.725 0.884,-0.722c1.831,-0.013 3.706,-1.563 5.39,-3.036c0.067,-0.058 0.166,-0.058 0.233,-0.001c0.446,0.384 2.034,1.751 2.48,2.135c0.067,0.058 0.081,0.156 0.033,0.231c-1.212,1.881 -2.575,3.874 -2.354,5.668c0.06,0.413 -0.18,0.812 -0.573,0.952c-1.955,0.718 -7.118,2.566 -7.118,2.566l3.72,-4.082c0.376,0.104 0.795,-0.009 1.067,-0.324c0.374,-0.435 0.325,-1.093 -0.11,-1.467c-0.435,-0.375 -1.093,-0.326 -1.468,0.109c-0.271,0.315 -0.32,0.746 -0.162,1.103l-3.484,4.285Z" style="fill:#fff;"/><path d="M16.669,6.64c-0.097,0.113 -0.234,0.182 -0.382,0.193c-0.148,0.011 -0.295,-0.037 -0.407,-0.134c-0.66,-0.568 -1.926,-1.658 -2.586,-2.227c-0.113,-0.096 -0.182,-0.234 -0.193,-0.382c-0.011,-0.148 0.037,-0.294 0.134,-0.407c0.448,-0.52 1.203,-1.397 1.651,-1.917c0.097,-0.113 0.234,-0.182 0.382,-0.193c0.148,-0.011 0.295,0.037 0.407,0.134c0.66,0.568 1.926,1.658 2.586,2.226c0.113,0.097 0.182,0.235 0.193,0.383c0.011,0.148 -0.037,0.294 -0.134,0.407c-0.448,0.52 -1.203,1.397 -1.651,1.917Z" style="fill:#fff;fill-opacity:0.6;"/><path d="M10.543,2.205c0,-0.047 -0.019,-0.093 -0.052,-0.126c-0.034,-0.034 -0.079,-0.052 -0.126,-0.052c-1.089,-0 -6.817,-0 -7.905,-0c-0.048,-0 -0.093,0.018 -0.127,0.052c-0.033,0.033 -0.052,0.079 -0.052,0.126c0,0.26 0,0.738 0,0.997c0,0.048 0.019,0.093 0.052,0.127c0.034,0.033 0.079,0.052 0.127,0.052c1.088,-0 6.816,-0 7.905,-0c0.047,-0 0.092,-0.019 0.126,-0.052c0.033,-0.034 0.052,-0.079 0.052,-0.127c0,-0.259 0,-0.737 0,-0.997Z" style="fill:#fff;fill-opacity:0.3;"/><path d="M7.115,5.528c0,-0.048 -0.019,-0.093 -0.052,-0.127c-0.034,-0.033 -0.079,-0.052 -0.126,-0.052c-0.76,0 -3.718,0 -4.477,0c-0.048,0 -0.093,0.019 -0.127,0.052c-0.033,0.034 -0.052,0.079 -0.052,0.127c0,0.259 0,0.737 0,0.997c0,0.047 0.019,0.093 0.052,0.126c0.034,0.034 0.079,0.052 0.127,0.052c0.759,0 3.717,0 4.477,0c0.047,0 0.092,-0.018 0.126,-0.052c0.033,-0.033 0.052,-0.079 0.052,-0.126c0,-0.26 0,-0.738 0,-0.997Z" style="fill:#fff;fill-opacity:0.3;"/></svg>