<?xml version="1.0" encoding="UTF-8" standalone="no"?><!DOCTYPE svg PUBLIC "-//W3C//DTD SVG 1.1//EN" "http://www.w3.org/Graphics/SVG/1.1/DTD/svg11.dtd"><svg width="100%" height="100%" viewBox="0 0 20 20" version="1.1" xmlns="http://www.w3.org/2000/svg" xmlns:xlink="http://www.w3.org/1999/xlink" xml:space="preserve" xmlns:serif="http://www.serif.com/" style="fill-rule:evenodd;clip-rule:evenodd;stroke-linejoin:round;stroke-miterlimit:2;"><path d="M11.644,12.941l-0.492,0c-0.269,0 -0.523,-0.119 -0.695,-0.325c0,-0 -2.349,-2.827 -2.349,-2.827c-0.179,-0.232 -0.311,-0.335 -0.439,-0.387c-0.096,-0.039 -0.194,-0.052 -0.316,-0.052c0,0 -0.942,0 -0.942,0c-0.138,0 -0.25,0.112 -0.25,0.25c0,0.138 0.112,0.25 0.25,0.25l0.942,-0c0.143,-0 0.205,0.045 0.362,0.249c0.002,0.002 0.004,0.004 0.006,0.007c0,-0 1.624,1.953 2.352,2.829c0.266,0.321 0.662,0.506 1.079,0.506l0.492,0c0.138,0 0.25,-0.112 0.25,-0.25c0,-0.138 -0.112,-0.25 -0.25,-0.25Z" style="fill:#fff;fill-opacity:0.3;"/><path d="M11.644,4.905l-0.492,-0c-0.417,-0 -0.813,0.185 -1.079,0.506c-0.728,0.876 -2.352,2.829 -2.352,2.829c-0.002,0.003 -0.004,0.005 -0.006,0.008c-0.157,0.204 -0.219,0.248 -0.362,0.248l-0.942,0c-0.138,0 -0.25,0.112 -0.25,0.25c0,0.138 0.112,0.25 0.25,0.25l0.942,0c0.122,0 0.22,-0.013 0.316,-0.052c0.129,-0.052 0.26,-0.155 0.44,-0.388c-0.001,0.001 2.348,-2.825 2.348,-2.825c0.172,-0.207 0.426,-0.326 0.695,-0.326l0.492,-0c0.138,-0 0.25,-0.112 0.25,-0.25c0,-0.138 -0.112,-0.25 -0.25,-0.25Z" style="fill:#fff;fill-opacity:0.3;"/><path d="M2.311,6.091c-0.223,-0 -0.437,0.088 -0.594,0.246c-0.158,0.157 -0.246,0.371 -0.246,0.594l-0,4.735c-0,0.223 0.088,0.437 0.246,0.594c0.157,0.158 0.371,0.246 0.594,0.246l2.652,0c0.223,0 0.437,-0.088 0.594,-0.246c0.158,-0.157 0.246,-0.371 0.246,-0.594l0,-4.735c0,-0.223 -0.088,-0.437 -0.246,-0.594c-0.157,-0.158 -0.371,-0.246 -0.594,-0.246l-2.652,-0Z" style="fill:#fff;"/><path d="M13.252,10.838c-0.464,-0 -0.84,0.376 -0.84,0.839c0,0.855 0,2.173 0,3.028c0,0.464 0.376,0.84 0.84,0.84c0.955,0 2.503,0 3.458,0c0.464,0 0.84,-0.376 0.84,-0.84c-0,-0.855 -0,-2.173 -0,-3.028c-0,-0.463 -0.376,-0.839 -0.84,-0.839c-0.955,-0 -2.503,-0 -3.458,-0Z" style="fill:#fff;fill-opacity:0.6;"/><path d="M13.252,2.801c-0.464,-0 -0.84,0.376 -0.84,0.84c0,0.855 0,2.173 0,3.028c0,0.464 0.376,0.84 0.84,0.84c0.955,-0 2.503,-0 3.458,-0c0.464,-0 0.84,-0.376 0.84,-0.84c-0,-0.855 -0,-2.173 -0,-3.028c-0,-0.464 -0.376,-0.84 -0.84,-0.84c-0.955,-0 -2.503,-0 -3.458,-0Z" style="fill:#fff;fill-opacity:0.6;"/></svg>