<?xml version="1.0" encoding="UTF-8" standalone="no"?><!DOCTYPE svg PUBLIC "-//W3C//DTD SVG 1.1//EN" "http://www.w3.org/Graphics/SVG/1.1/DTD/svg11.dtd"><svg width="100%" height="100%" viewBox="0 0 20 20" version="1.1" xmlns="http://www.w3.org/2000/svg" xmlns:xlink="http://www.w3.org/1999/xlink" xml:space="preserve" xmlns:serif="http://www.serif.com/" style="fill-rule:evenodd;clip-rule:evenodd;stroke-linejoin:round;stroke-miterlimit:2;"><path d="M8.489,7.791c-0,0.385 -0.313,0.698 -0.698,0.698c-1.517,-0 -4.98,-0 -4.98,-0c-0.232,-0 -0.42,0.125 -0.42,0.28c-0,0.427 -0,1.235 -0,1.662c-0,0.155 0.188,0.28 0.42,0.28l4.98,0c0.385,0 0.698,0.313 0.698,0.698c-0,1.587 -0,5.333 -0,5.333c-0,0.244 0.125,0.442 0.28,0.442c0.427,0 1.235,0 1.662,0c0.155,0 0.28,-0.198 0.28,-0.442l0,-5.333c0,-0.385 0.313,-0.698 0.698,-0.698c1.517,0 4.98,0 4.98,0c0.232,0 0.42,-0.125 0.42,-0.28c0,-0.427 0,-1.235 0,-1.662c0,-0.155 -0.188,-0.28 -0.42,-0.28l-4.98,-0c-0.385,-0 -0.698,-0.313 -0.698,-0.698c0,-1.587 0,-5.333 0,-5.333c0,-0.244 -0.125,-0.442 -0.28,-0.442c-0.427,-0 -1.235,-0 -1.662,-0c-0.155,-0 -0.28,0.198 -0.28,0.442l-0,5.333Z" style="fill:#fff;"/></svg>