<?xml version="1.0" encoding="UTF-8" standalone="no"?><!DOCTYPE svg PUBLIC "-//W3C//DTD SVG 1.1//EN" "http://www.w3.org/Graphics/SVG/1.1/DTD/svg11.dtd"><svg width="100%" height="100%" viewBox="0 0 20 20" version="1.1" xmlns="http://www.w3.org/2000/svg" xmlns:xlink="http://www.w3.org/1999/xlink" xml:space="preserve" xmlns:serif="http://www.serif.com/" style="fill-rule:evenodd;clip-rule:evenodd;stroke-linejoin:round;stroke-miterlimit:2;"><path d="M16.511,8.701c-0,-0.214 -0.085,-0.419 -0.236,-0.57c-0.151,-0.151 -0.356,-0.236 -0.57,-0.236l-10.19,0c-0.213,0 -0.418,0.085 -0.569,0.236c-0.151,0.151 -0.236,0.356 -0.236,0.57l-0,1.798c-0,0.214 0.085,0.419 0.236,0.57c0.151,0.151 0.356,0.236 0.569,0.236l10.19,-0c0.214,-0 0.419,-0.085 0.57,-0.236c0.151,-0.151 0.236,-0.356 0.236,-0.57l-0,-1.798Z" style="fill:#fff;"/><path d="M16.511,14.107c-0,-0.214 -0.085,-0.419 -0.236,-0.57c-0.151,-0.151 -0.356,-0.236 -0.57,-0.236c-1.642,-0 -5.36,-0 -7.002,-0c-0.214,-0 -0.419,0.085 -0.57,0.236c-0.151,0.151 -0.236,0.356 -0.236,0.57c0,0.257 0,0.542 0,0.799c0,0.214 0.085,0.419 0.236,0.57c0.151,0.151 0.356,0.236 0.57,0.236c1.642,-0 5.36,-0 7.002,-0c0.214,-0 0.419,-0.085 0.57,-0.236c0.151,-0.151 0.236,-0.356 0.236,-0.57c-0,-0.257 -0,-0.542 -0,-0.799Z" style="fill:#fff;fill-opacity:0.3;"/><path d="M14.171,4.415c0.178,0 0.346,-0.081 0.457,-0.22c0.19,-0.248 0.49,-0.407 0.827,-0.407c0.583,0 1.056,0.473 1.056,1.056c-0,0.582 -0.473,1.055 -1.056,1.055c-0.337,-0 -0.637,-0.158 -0.83,-0.405c-0.11,-0.138 -0.277,-0.218 -0.454,-0.218c-1.548,-0.004 -8.259,-0.004 -9.807,-0.004c-0.178,-0 -0.346,0.081 -0.457,0.22c-0.19,0.249 -0.491,0.407 -0.828,0.407c-0.582,-0 -1.055,-0.473 -1.055,-1.055c0,-0.583 0.473,-1.056 1.055,-1.056c0.337,0 0.638,0.159 0.831,0.405c0.11,0.138 0.277,0.219 0.454,0.219c1.548,0.003 8.259,0.003 9.807,0.003Z" style="fill:#fff;fill-opacity:0.6;"/></svg>