<?xml version="1.0" encoding="UTF-8" standalone="no"?><!DOCTYPE svg PUBLIC "-//W3C//DTD SVG 1.1//EN" "http://www.w3.org/Graphics/SVG/1.1/DTD/svg11.dtd"><svg width="100%" height="100%" viewBox="0 0 20 20" version="1.1" xmlns="http://www.w3.org/2000/svg" xmlns:xlink="http://www.w3.org/1999/xlink" xml:space="preserve" xmlns:serif="http://www.serif.com/" style="fill-rule:evenodd;clip-rule:evenodd;stroke-linejoin:round;stroke-miterlimit:2;"><ellipse cx="9.6" cy="15.837" rx="5.101" ry="1.635" style="fill:#fff;fill-opacity:0.2;"/><path d="M14.208,6.523c0,-1.222 -0.485,-2.394 -1.35,-3.258c-0.864,-0.864 -2.036,-1.35 -3.258,-1.35c-0,0 -0,0 -0,0c-1.222,0 -2.394,0.486 -3.258,1.35c-0.865,0.864 -1.35,2.036 -1.35,3.258c-0,0.068 -0,0.135 -0,0.202c-0,2.229 0.82,4.381 2.303,6.045c1.153,1.293 2.305,2.585 2.305,2.585c-0,0 1.152,-1.292 2.305,-2.585c1.483,-1.664 2.303,-3.816 2.303,-6.045l-0,-0.202Zm-4.608,-2.436c1.414,-0 2.562,1.148 2.562,2.562c0,1.414 -1.148,2.562 -2.562,2.562c-1.414,0 -2.562,-1.148 -2.562,-2.562c-0,-1.414 1.148,-2.562 2.562,-2.562Z" style="fill:#fff;"/></svg>