<?xml version="1.0" encoding="UTF-8" standalone="no"?><!DOCTYPE svg PUBLIC "-//W3C//DTD SVG 1.1//EN" "http://www.w3.org/Graphics/SVG/1.1/DTD/svg11.dtd"><svg width="100%" height="100%" viewBox="0 0 20 20" version="1.1" xmlns="http://www.w3.org/2000/svg" xmlns:xlink="http://www.w3.org/1999/xlink" xml:space="preserve" xmlns:serif="http://www.serif.com/" style="fill-rule:evenodd;clip-rule:evenodd;stroke-linejoin:round;stroke-miterlimit:2;"><path d="M7.247,3.519c-0,0.059 -0.024,0.115 -0.065,0.157c-0.042,0.042 -0.099,0.065 -0.158,0.065c-0.656,0 -2.58,0 -3.237,0c-0.059,0 -0.115,0.024 -0.157,0.065c-0.042,0.042 -0.065,0.099 -0.065,0.158c-0,0.351 -0,1.029 -0,1.381c-0,0.059 0.023,0.115 0.065,0.157c0.042,0.042 0.098,0.065 0.157,0.065c1.498,-0 10.105,-0 11.603,-0c0.059,-0 0.116,-0.023 0.157,-0.065c0.042,-0.042 0.065,-0.098 0.065,-0.157c0,-0.352 0,-1.03 0,-1.381c0,-0.059 -0.023,-0.116 -0.065,-0.158c-0.041,-0.041 -0.098,-0.065 -0.157,-0.065c-0.659,0 -2.599,0 -3.247,0c-0.056,0 -0.11,-0.022 -0.15,-0.062c-0.04,-0.04 -0.063,-0.094 -0.063,-0.151c0,-0.348 0,-1.036 0,-1.39c0,-0.059 -0.023,-0.116 -0.065,-0.157c-0.042,-0.042 -0.098,-0.066 -0.157,-0.066c-0.789,0 -3.45,0 -4.239,0c-0.059,0 -0.115,0.024 -0.157,0.066c-0.042,0.041 -0.065,0.098 -0.065,0.157c-0,0.351 -0,1.03 -0,1.381Z" style="fill:#fff;"/><path d="M14.369,6.634l-9.561,-0l0,9.323c0,0.35 0.14,0.687 0.388,0.935c0.248,0.248 0.584,0.387 0.935,0.387c1.823,-0 5.092,-0 6.916,-0c0.35,-0 0.687,-0.139 0.935,-0.387c0.248,-0.248 0.387,-0.585 0.387,-0.935c-0,-2.852 -0,-9.323 -0,-9.323Zm-6.909,1.836c-0,-0.15 -0.122,-0.272 -0.272,-0.272l-0.75,-0c-0.151,-0 -0.272,0.122 -0.272,0.272l-0,6.972c-0,0.151 0.121,0.273 0.272,0.273l0.75,-0c0.15,-0 0.272,-0.122 0.272,-0.273l-0,-6.972Zm2.787,0c0,-0.15 -0.122,-0.272 -0.272,-0.272l-0.75,-0c-0.15,-0 -0.272,0.122 -0.272,0.272l-0,6.972c-0,0.151 0.122,0.273 0.272,0.273l0.75,-0c0.15,-0 0.272,-0.122 0.272,-0.273l0,-6.972Zm2.787,0c0,-0.15 -0.121,-0.272 -0.272,-0.272l-0.75,-0c-0.15,-0 -0.272,0.122 -0.272,0.272l0,6.972c0,0.151 0.122,0.273 0.272,0.273l0.75,-0c0.151,-0 0.272,-0.122 0.272,-0.273l0,-6.972Z" style="fill:#fff;fill-opacity:0.6;"/></svg>