<?xml version="1.0" encoding="UTF-8" standalone="no"?><!DOCTYPE svg PUBLIC "-//W3C//DTD SVG 1.1//EN" "http://www.w3.org/Graphics/SVG/1.1/DTD/svg11.dtd"><svg width="100%" height="100%" viewBox="0 0 20 20" version="1.1" xmlns="http://www.w3.org/2000/svg" xmlns:xlink="http://www.w3.org/1999/xlink" xml:space="preserve" xmlns:serif="http://www.serif.com/" style="fill-rule:evenodd;clip-rule:evenodd;stroke-linejoin:round;stroke-miterlimit:2;"><circle cx="6.974" cy="8.101" r="4.321" style="fill:#fff;fill-opacity:0.3;"/><path d="M5.314,6.402c-0.097,-0.1 -0.235,-0.151 -0.375,-0.14c-0.139,0.012 -0.266,0.086 -0.346,0.201c-0.536,0.787 -0.654,1.793 -0.309,2.681c0.051,0.129 0.156,0.228 0.288,0.271c0.131,0.043 0.275,0.025 0.392,-0.049c0.009,0.001 0.016,-0.003 0.022,-0.007c0.189,-0.12 0.267,-0.357 0.186,-0.566c-0.232,-0.591 -0.154,-1.26 0.204,-1.784c0.126,-0.183 0.105,-0.429 -0.05,-0.587c-0.001,-0.009 -0.006,-0.014 -0.012,-0.02Z" style="fill:#fff;"/><path d="M9.756,12.571c-2.052,1.279 -4.79,1.009 -6.548,-0.792c-2.03,-2.078 -1.991,-5.414 0.087,-7.444c2.079,-2.03 5.414,-1.991 7.444,0.088c1.759,1.8 1.965,4.543 0.638,6.564l2.912,2.981c0.21,0.215 0.326,0.505 0.322,0.805c-0.003,0.301 -0.126,0.587 -0.341,0.797c-0,0 -0,0.001 -0,0.001c-0.215,0.21 -0.505,0.326 -0.805,0.322c-0.301,-0.003 -0.587,-0.126 -0.797,-0.341l-2.912,-2.981Zm-2.782,-8.791c2.384,0 4.32,1.936 4.32,4.321c0,2.385 -1.936,4.321 -4.32,4.321c-2.385,-0 -4.321,-1.936 -4.321,-4.321c0,-2.385 1.936,-4.321 4.321,-4.321Z" style="fill:#fff;fill-opacity:0.6;"/></svg>