<?xml version="1.0" encoding="UTF-8" standalone="no"?><!DOCTYPE svg PUBLIC "-//W3C//DTD SVG 1.1//EN" "http://www.w3.org/Graphics/SVG/1.1/DTD/svg11.dtd"><svg width="100%" height="100%" viewBox="0 0 20 20" version="1.1" xmlns="http://www.w3.org/2000/svg" xmlns:xlink="http://www.w3.org/1999/xlink" xml:space="preserve" xmlns:serif="http://www.serif.com/" style="fill-rule:evenodd;clip-rule:evenodd;stroke-linejoin:round;stroke-miterlimit:2;"><g><path d="M8.116,11.436l0,3.173l2.985,2.578l0,-5.751l5.588,-7.559c0.262,-0.355 0.302,-0.827 0.103,-1.222c-0.198,-0.394 -0.602,-0.642 -1.044,-0.642c-3.23,-0 -9.049,-0 -12.279,-0c-0.441,-0 -0.845,0.248 -1.044,0.642c-0.199,0.395 -0.159,0.867 0.104,1.222l5.587,7.559Zm-2.732,-8.044c-0.288,0 -0.551,0.165 -0.676,0.425c-0.125,0.26 -0.09,0.568 0.09,0.793c0.805,1.006 1.817,2.271 1.817,2.271c0.981,1.526 1.962,1.292 2.943,0.065c0.048,-0.061 0.101,-0.117 0.159,-0.168c0.846,-0.74 1.789,-0.823 2.886,0.103c-0,-0 1.011,-1.265 1.816,-2.271c0.18,-0.225 0.215,-0.533 0.09,-0.793c-0.125,-0.26 -0.387,-0.425 -0.676,-0.425c-2.212,0 -6.237,0 -8.449,0Z" style="fill:#fff;"/></g></svg>