<?xml version="1.0" encoding="UTF-8" standalone="no"?><!DOCTYPE svg PUBLIC "-//W3C//DTD SVG 1.1//EN" "http://www.w3.org/Graphics/SVG/1.1/DTD/svg11.dtd"><svg width="100%" height="100%" viewBox="0 0 20 20" version="1.1" xmlns="http://www.w3.org/2000/svg" xmlns:xlink="http://www.w3.org/1999/xlink" xml:space="preserve" xmlns:serif="http://www.serif.com/" style="fill-rule:evenodd;clip-rule:evenodd;stroke-linecap:round;stroke-linejoin:round;stroke-miterlimit:1.5;"><path d="M9.174,3.75c0.091,-0.148 0.252,-0.238 0.426,-0.238c0.174,-0 0.335,0.09 0.426,0.238c0.599,0.975 1.656,2.694 1.996,3.246c0.069,0.112 0.18,0.193 0.308,0.224c0.63,0.152 2.592,0.626 3.704,0.895c0.169,0.041 0.305,0.166 0.358,0.332c0.054,0.165 0.018,0.346 -0.095,0.478c-0.742,0.872 -2.05,2.408 -2.47,2.901c-0.086,0.101 -0.128,0.231 -0.118,0.363c0.05,0.646 0.205,2.658 0.294,3.799c0.013,0.174 -0.065,0.341 -0.205,0.443c-0.141,0.103 -0.324,0.124 -0.485,0.058c-1.058,-0.436 -2.923,-1.206 -3.522,-1.453c-0.122,-0.05 -0.26,-0.05 -0.382,0c-0.599,0.247 -2.464,1.017 -3.522,1.453c-0.161,0.066 -0.344,0.045 -0.485,-0.058c-0.14,-0.102 -0.218,-0.269 -0.205,-0.443c0.089,-1.141 0.244,-3.153 0.294,-3.799c0.01,-0.132 -0.032,-0.262 -0.118,-0.363c-0.42,-0.493 -1.728,-2.029 -2.47,-2.901c-0.113,-0.132 -0.149,-0.313 -0.095,-0.478c0.053,-0.166 0.189,-0.291 0.358,-0.332c1.112,-0.269 3.074,-0.743 3.704,-0.895c0.128,-0.031 0.239,-0.112 0.308,-0.224c0.34,-0.552 1.397,-2.271 1.996,-3.246Z" style="fill:none;stroke:#fff;stroke-opacity:0.6;stroke-width:0.8px;"/></svg>