<?xml version="1.0" encoding="UTF-8" standalone="no"?><!DOCTYPE svg PUBLIC "-//W3C//DTD SVG 1.1//EN" "http://www.w3.org/Graphics/SVG/1.1/DTD/svg11.dtd"><svg width="100%" height="100%" viewBox="0 0 20 20" version="1.1" xmlns="http://www.w3.org/2000/svg" xmlns:xlink="http://www.w3.org/1999/xlink" xml:space="preserve" xmlns:serif="http://www.serif.com/" style="fill-rule:evenodd;clip-rule:evenodd;stroke-linejoin:round;stroke-miterlimit:2;"><path d="M10.88,2.227c-0.848,-0.142 -1.712,-0.142 -2.56,-0c0.164,0.977 -0.129,1.791 -0.878,2.44c-0.988,0.07 -1.77,-0.298 -2.346,-1.105c-0.699,0.499 -1.311,1.111 -1.81,1.81c0.807,0.576 1.175,1.358 1.105,2.346c-0.649,0.749 -1.463,1.042 -2.44,0.878c-0.142,0.847 -0.142,1.712 -0,2.56c0.977,-0.164 1.791,0.129 2.44,0.877c0.07,0.989 -0.298,1.771 -1.105,2.347c0.499,0.699 1.111,1.311 1.81,1.81c0.576,-0.807 1.358,-1.176 2.346,-1.105c0.749,0.649 1.042,1.463 0.878,2.44c0.848,0.142 1.712,0.142 2.56,0c-0.164,-0.977 0.129,-1.791 0.878,-2.44c0.988,-0.071 1.77,0.298 2.346,1.105c0.699,-0.499 1.311,-1.111 1.81,-1.81c-0.807,-0.576 -1.175,-1.358 -1.105,-2.347c0.649,-0.748 1.463,-1.041 2.44,-0.877c0.142,-0.848 0.142,-1.713 0,-2.56c-0.977,0.164 -1.791,-0.129 -2.44,-0.878c-0.07,-0.988 0.298,-1.77 1.105,-2.346c-0.499,-0.699 -1.111,-1.311 -1.81,-1.81c-0.576,0.807 -1.358,1.175 -2.346,1.105c-0.749,-0.649 -1.042,-1.463 -0.878,-2.44Zm-1.28,3.354c2.371,-0 4.295,1.924 4.295,4.295c0,2.371 -1.924,4.295 -4.295,4.295c-2.371,0 -4.295,-1.924 -4.295,-4.295c-0,-2.371 1.924,-4.295 4.295,-4.295Z" style="fill:#fff;"/><ellipse cx="9.6" cy="9.914" rx="1.929" ry="1.817" style="fill:#fff;fill-opacity:0.4;"/></svg>