<?xml version="1.0" encoding="UTF-8" standalone="no"?><!DOCTYPE svg PUBLIC "-//W3C//DTD SVG 1.1//EN" "http://www.w3.org/Graphics/SVG/1.1/DTD/svg11.dtd"><svg width="100%" height="100%" viewBox="0 0 20 20" version="1.1" xmlns="http://www.w3.org/2000/svg" xmlns:xlink="http://www.w3.org/1999/xlink" xml:space="preserve" xmlns:serif="http://www.serif.com/" style="fill-rule:evenodd;clip-rule:evenodd;stroke-linejoin:round;stroke-miterlimit:2;"><path d="M13.37,8.646c-0.771,-1.356 -2.211,-2.193 -3.77,-2.193l0,4.337l3.77,-2.144Z" style="fill:#fff;"/><path d="M8.755,4.167l0,-1.016l-1.295,-0c-0.196,-0 -0.355,-0.159 -0.355,-0.355c-0,-0.001 -0,-0.001 -0,-0.001c-0,-0.753 0.61,-1.363 1.362,-1.363c0.705,0 1.561,0 2.266,0c0.752,0 1.362,0.61 1.362,1.363c0,0 0,0 0,0.001c0,0.196 -0.159,0.355 -0.355,0.355l-1.295,-0l-0,1.016c3.287,0.416 5.831,3.225 5.831,6.623c0,3.685 -2.991,6.677 -6.676,6.677c-3.685,-0 -6.676,-2.992 -6.676,-6.677c-0,-3.398 2.544,-6.207 5.831,-6.623Zm0.845,1.142c3.025,-0 5.482,2.456 5.482,5.481c-0,3.026 -2.457,5.482 -5.482,5.482c-3.025,0 -5.482,-2.456 -5.482,-5.482c0,-3.025 2.457,-5.481 5.482,-5.481Z" style="fill:#fff;fill-opacity:0.6;"/><circle cx="9.6" cy="10.79" r="5.482" style="fill:#fff;fill-opacity:0.3;"/></svg>