<?xml version="1.0" encoding="UTF-8" standalone="no"?><!DOCTYPE svg PUBLIC "-//W3C//DTD SVG 1.1//EN" "http://www.w3.org/Graphics/SVG/1.1/DTD/svg11.dtd"><svg width="100%" height="100%" viewBox="0 0 20 20" version="1.1" xmlns="http://www.w3.org/2000/svg" xmlns:xlink="http://www.w3.org/1999/xlink" xml:space="preserve" xmlns:serif="http://www.serif.com/" style="fill-rule:evenodd;clip-rule:evenodd;stroke-linecap:round;stroke-linejoin:round;stroke-miterlimit:1.5;"><g><g><path d="M14.184,11.533c0,-0 0,-2.387 0,-4.288c0,-0.496 -0.213,-0.969 -0.585,-1.298c-0.988,-0.873 -2.956,-2.611 -3.767,-3.327c-0.234,-0.206 -0.534,-0.32 -0.846,-0.32c-1.862,-0 -2.769,-0 -4.804,-0c-0.392,-0 -0.769,0.16 -1.046,0.445c-0.278,0.285 -0.434,0.672 -0.434,1.076c0,2.67 0,8.169 0,10.839c0,0.403 0.156,0.79 0.434,1.075c0.277,0.285 0.654,0.446 1.046,0.446c1.347,-0 4.459,-0 6.362,-0" style="fill:none;stroke:#fff;stroke-width:0.96px;"/><path d="M10.803,3.616l0,3.457l3.381,0" style="fill:none;stroke:#fff;stroke-width:0.96px;"/></g></g><rect x="4.753" y="8.706" width="5.816" height="1.068" style="fill:#fff;fill-opacity:0.3;"/><rect x="4.753" y="12.074" width="4.847" height="1.068" style="fill:#fff;fill-opacity:0.3;"/><path d="M13.59,13.688c-0.253,0 -0.495,-0.1 -0.674,-0.279c-0.179,-0.179 -0.279,-0.421 -0.279,-0.674c-0,-0.594 -0,-1.338 -0,-1.845c-0,-0.322 -0.261,-0.584 -0.583,-0.584c-0,0 -0,0 -0.001,0c-0.322,0 -0.583,0.262 -0.583,0.584c0,0.661 0,1.769 0,2.709c0,0.449 0.179,0.88 0.496,1.197c0.318,0.318 0.749,0.496 1.198,0.496l2.398,0l0,-1.604l-1.972,0Z" style="fill:#fff;fill-opacity:0.6;"/><path d="M17.92,14.41c-0,-0 -1.09,1.041 -1.788,1.708c-0.097,0.093 -0.241,0.119 -0.365,0.066c-0.124,-0.053 -0.205,-0.175 -0.205,-0.309c0,-0.824 0,-2.107 0,-2.93c0,-0.135 0.081,-0.257 0.205,-0.31c0.124,-0.053 0.268,-0.027 0.365,0.066c0.698,0.667 1.788,1.709 1.788,1.709Z" style="fill:#fff;fill-opacity:0.6;"/></svg>