<?xml version="1.0" encoding="UTF-8" standalone="no"?><!DOCTYPE svg PUBLIC "-//W3C//DTD SVG 1.1//EN" "http://www.w3.org/Graphics/SVG/1.1/DTD/svg11.dtd"><svg width="100%" height="100%" viewBox="0 0 20 20" version="1.1" xmlns="http://www.w3.org/2000/svg" xmlns:xlink="http://www.w3.org/1999/xlink" xml:space="preserve" xmlns:serif="http://www.serif.com/" style="fill-rule:evenodd;clip-rule:evenodd;stroke-linejoin:round;stroke-miterlimit:2;"><path d="M3.572,15.613l3.905,-0l-0,1.666l-5.571,-0l0,-5.567l1.666,0l0,3.901Zm13.699,1.666l-5.57,-0l-0,-1.666l3.904,-0l-0,-3.901l1.666,0l-0,5.567Zm-0,-9.791l-1.666,0l-0,-3.907l-3.904,0l-0,-1.666l5.57,0l-0,5.573Zm-9.794,-5.573l-0,1.666l-3.905,0l0,3.907l-1.666,0l0,-5.573l5.571,0Z" style="fill:#fff;fill-opacity:0.3;"/><path d="M11.701,11.381c-0,0.088 -0.035,0.172 -0.097,0.234c-0.063,0.062 -0.147,0.097 -0.235,0.097l-3.561,0c-0.088,0 -0.172,-0.035 -0.234,-0.097c-0.063,-0.062 -0.097,-0.146 -0.097,-0.234l-0,-3.562c-0,-0.088 0.034,-0.172 0.097,-0.234c0.062,-0.062 0.146,-0.097 0.234,-0.097l3.561,0c0.088,-0 0.172,0.035 0.235,0.097c0.062,0.062 0.097,0.146 0.097,0.234l-0,3.562Z" style="fill:#fff;"/></svg>