<?xml version="1.0" encoding="UTF-8" standalone="no"?><!DOCTYPE svg PUBLIC "-//W3C//DTD SVG 1.1//EN" "http://www.w3.org/Graphics/SVG/1.1/DTD/svg11.dtd"><svg width="100%" height="100%" viewBox="0 0 20 20" version="1.1" xmlns="http://www.w3.org/2000/svg" xmlns:xlink="http://www.w3.org/1999/xlink" xml:space="preserve" xmlns:serif="http://www.serif.com/" style="fill-rule:evenodd;clip-rule:evenodd;stroke-linejoin:round;stroke-miterlimit:2;"><path d="M8.554,8.554c-1.249,1.249 -1.249,3.277 -0,4.526c-0,-0 2.317,2.317 2.317,2.317c1.249,1.249 3.277,1.249 4.526,-0c1.249,-1.249 1.249,-3.277 -0,-4.526c-0,-0 -2.317,-2.317 -2.317,-2.317c-0.268,-0.268 -0.702,-0.268 -0.97,-0c-0.268,0.267 -0.268,0.702 0,0.969l2.317,2.317c0.714,0.714 0.714,1.873 0,2.587c-0.714,0.714 -1.873,0.714 -2.587,0c0,0 -2.317,-2.317 -2.317,-2.317c-0.713,-0.714 -0.713,-1.873 0,-2.587c0.268,-0.267 0.268,-0.702 0,-0.969c-0.267,-0.268 -0.702,-0.268 -0.969,-0Z" style="fill:#fff;fill-opacity:0.6;"/><path d="M10.646,10.646c1.249,-1.249 1.249,-3.277 0,-4.526c0,0 -2.317,-2.317 -2.317,-2.317c-1.249,-1.249 -3.277,-1.249 -4.526,0c-1.249,1.249 -1.249,3.277 0,4.526c0,0 2.317,2.317 2.317,2.317c0.268,0.268 0.702,0.268 0.97,0c0.268,-0.267 0.268,-0.702 -0,-0.969l-2.317,-2.317c-0.714,-0.714 -0.714,-1.873 -0,-2.587c0.714,-0.714 1.873,-0.714 2.587,-0c-0,-0 2.317,2.317 2.317,2.317c0.713,0.714 0.713,1.873 -0,2.587c-0.268,0.267 -0.268,0.702 -0,0.969c0.267,0.268 0.702,0.268 0.969,0Z" style="fill:#fff;"/></svg>