<?xml version="1.0" encoding="UTF-8" standalone="no"?><!DOCTYPE svg PUBLIC "-//W3C//DTD SVG 1.1//EN" "http://www.w3.org/Graphics/SVG/1.1/DTD/svg11.dtd"><svg width="100%" height="100%" viewBox="0 0 20 20" version="1.1" xmlns="http://www.w3.org/2000/svg" xmlns:xlink="http://www.w3.org/1999/xlink" xml:space="preserve" xmlns:serif="http://www.serif.com/" style="fill-rule:evenodd;clip-rule:evenodd;stroke-linejoin:round;stroke-miterlimit:2;"><path d="M2.23,13.072l5.082,-3.609c0.117,-0.083 0.276,-0.075 0.384,0.019c0.305,0.265 0.913,0.792 1.23,1.066c0.116,0.101 0.289,0.102 0.406,0.001c0.703,-0.602 3.026,-2.593 3.802,-3.258c0.065,-0.056 0.151,-0.082 0.237,-0.073c0.086,0.01 0.164,0.055 0.216,0.125l3.383,4.598l0,-6.903c0,-0.532 -0.431,-0.963 -0.962,-0.963c-2.67,-0 -10.146,-0 -12.816,-0c-0.531,-0 -0.962,0.431 -0.962,0.963l-0,8.034Z" style="fill:#fff;fill-opacity:0.6;"/><path d="M2.23,13.072l-0,1.09c-0,0.532 0.431,0.963 0.962,0.963c2.67,0 10.146,0 12.816,0c0.531,0 0.962,-0.431 0.962,-0.963l0,-2.221l-3.383,-4.598c-0.052,-0.07 -0.13,-0.115 -0.216,-0.125c-0.086,-0.009 -0.172,0.017 -0.237,0.073c-0.776,0.665 -3.099,2.656 -3.802,3.258c-0.117,0.101 -0.29,0.1 -0.406,-0.001c-0.317,-0.274 -0.925,-0.801 -1.23,-1.066c-0.108,-0.094 -0.267,-0.102 -0.384,-0.019l-5.082,3.609Z" style="fill:#fff;fill-opacity:0.3;"/><circle cx="5.635" cy="7.302" r="1.699" style="fill:#fff;"/></svg>