<?xml version="1.0" encoding="UTF-8" standalone="no"?><!DOCTYPE svg PUBLIC "-//W3C//DTD SVG 1.1//EN" "http://www.w3.org/Graphics/SVG/1.1/DTD/svg11.dtd"><svg width="100%" height="100%" viewBox="0 0 20 20" version="1.1" xmlns="http://www.w3.org/2000/svg" xmlns:xlink="http://www.w3.org/1999/xlink" xml:space="preserve" xmlns:serif="http://www.serif.com/" style="fill-rule:evenodd;clip-rule:evenodd;stroke-linejoin:round;stroke-miterlimit:2;"><g><path d="M5.71,4.078c-0,-0.161 -0.064,-0.316 -0.178,-0.43c-0.114,-0.113 -0.268,-0.177 -0.429,-0.177c-0.644,-0 -1.656,-0 -2.299,-0c-0.161,-0 -0.316,0.064 -0.43,0.177c-0.113,0.114 -0.177,0.269 -0.177,0.43c-0,0.556 -0,1.376 -0,1.932c-0,0.161 0.064,0.315 0.177,0.429c0.114,0.114 0.269,0.178 0.43,0.178c0.643,-0 1.655,-0 2.299,-0c0.161,-0 0.315,-0.064 0.429,-0.178c0.114,-0.114 0.178,-0.268 0.178,-0.429c-0,-0.556 -0,-1.376 -0,-1.932Z" style="fill:#fff;fill-opacity:0.6;"/><path d="M5.71,8.456c-0,-0.161 -0.064,-0.316 -0.178,-0.43c-0.114,-0.113 -0.268,-0.177 -0.429,-0.177c-0.644,-0 -1.656,-0 -2.299,-0c-0.161,-0 -0.316,0.064 -0.43,0.177c-0.113,0.114 -0.177,0.269 -0.177,0.43c-0,0.556 -0,1.376 -0,1.932c-0,0.161 0.064,0.315 0.177,0.429c0.114,0.114 0.269,0.178 0.43,0.178c0.643,-0 1.655,-0 2.299,-0c0.161,-0 0.315,-0.064 0.429,-0.178c0.114,-0.114 0.178,-0.268 0.178,-0.429c-0,-0.556 -0,-1.376 -0,-1.932Z" style="fill:#fff;fill-opacity:0.6;"/><path d="M5.71,12.834c-0,-0.161 -0.064,-0.316 -0.178,-0.43c-0.114,-0.113 -0.268,-0.177 -0.429,-0.177c-0.644,-0 -1.656,-0 -2.299,-0c-0.161,-0 -0.316,0.064 -0.43,0.177c-0.113,0.114 -0.177,0.269 -0.177,0.43c-0,0.556 -0,1.376 -0,1.932c-0,0.161 0.064,0.315 0.177,0.429c0.114,0.114 0.269,0.178 0.43,0.178c0.643,-0 1.655,-0 2.299,-0c0.161,-0 0.315,-0.064 0.429,-0.178c0.114,-0.114 0.178,-0.268 0.178,-0.429c-0,-0.556 -0,-1.376 -0,-1.932Z" style="fill:#fff;fill-opacity:0.3;"/><path d="M17.271,3.996c-0,-0.212 -0.172,-0.383 -0.384,-0.383c-1.493,-0 -6.903,-0 -8.395,-0c-0.212,-0 -0.384,0.171 -0.384,0.383c-0,0.547 -0,1.543 -0,2.089c-0,0.212 0.172,0.384 0.384,0.384c1.492,-0 6.902,-0 8.395,-0c0.212,-0 0.384,-0.172 0.384,-0.384c-0,-0.546 -0,-1.542 -0,-2.089Z" style="fill:#fff;"/><path d="M17.271,8.374c-0,-0.212 -0.172,-0.383 -0.384,-0.383c-1.493,-0 -6.903,-0 -8.395,-0c-0.212,-0 -0.384,0.171 -0.384,0.383c-0,0.547 -0,1.543 -0,2.089c-0,0.212 0.172,0.384 0.384,0.384c1.492,-0 6.902,-0 8.395,-0c0.212,-0 0.384,-0.172 0.384,-0.384c-0,-0.546 -0,-1.542 -0,-2.089Z" style="fill:#fff;"/><path d="M17.271,12.752c-0,-0.212 -0.172,-0.383 -0.384,-0.383c-1.493,-0 -6.903,-0 -8.395,-0c-0.212,-0 -0.384,0.171 -0.384,0.383c-0,0.547 -0,1.543 -0,2.089c-0,0.212 0.172,0.384 0.384,0.384c1.492,-0 6.902,-0 8.395,-0c0.212,-0 0.384,-0.172 0.384,-0.384c-0,-0.546 -0,-1.542 -0,-2.089Z" style="fill:#fff;"/></g></svg>