<?xml version="1.0" encoding="UTF-8" standalone="no"?><!DOCTYPE svg PUBLIC "-//W3C//DTD SVG 1.1//EN" "http://www.w3.org/Graphics/SVG/1.1/DTD/svg11.dtd"><svg width="100%" height="100%" viewBox="0 0 20 20" version="1.1" xmlns="http://www.w3.org/2000/svg" xmlns:xlink="http://www.w3.org/1999/xlink" xml:space="preserve" xmlns:serif="http://www.serif.com/" style="fill-rule:evenodd;clip-rule:evenodd;stroke-linejoin:round;stroke-miterlimit:2;"><path d="M10.368,4.885c-0,-0.153 -0.124,-0.277 -0.277,-0.277c-0.278,0 -0.704,0 -0.982,0c-0.153,0 -0.277,0.124 -0.277,0.277c0,1.642 0,10.092 0,11.734c0,0.153 0.124,0.277 0.277,0.277c0.278,0 0.704,0 0.982,0c0.153,-0 0.277,-0.124 0.277,-0.277c0,-1.642 0,-10.092 0,-11.734Z" style="fill:#fff;"/><path d="M16.894,2.438c-0,-0.289 -0.234,-0.523 -0.523,-0.523c-2.271,0 -11.271,0 -13.542,0c-0.289,0 -0.523,0.234 -0.523,0.523c0,0.877 0,2.549 0,2.549l0.858,0l0,-1.237c0,-0.079 0.032,-0.155 0.088,-0.211c0.056,-0.056 0.132,-0.088 0.211,-0.088l12.274,0c0.079,0 0.155,0.032 0.211,0.088c0.056,0.056 0.088,0.132 0.088,0.211l-0,1.237l0.858,0l-0,-2.549Z" style="fill:#fff;fill-opacity:0.6;"/><path d="M10.397,15.776c-0.038,-0.041 -0.092,-0.065 -0.148,-0.065c-0.263,0 -1.035,0 -1.298,0c-0.056,0 -0.11,0.024 -0.148,0.065c-0.171,0.183 -0.665,0.714 -0.997,1.07c-0.055,0.059 -0.07,0.145 -0.037,0.219c0.032,0.074 0.105,0.122 0.186,0.122c0.812,0 2.478,0 3.29,0c0.081,0 0.154,-0.048 0.186,-0.122c0.033,-0.074 0.018,-0.16 -0.037,-0.219c-0.332,-0.356 -0.826,-0.887 -0.997,-1.07Z" style="fill:#fff;"/></svg>