<?xml version="1.0" encoding="UTF-8" standalone="no"?><!DOCTYPE svg PUBLIC "-//W3C//DTD SVG 1.1//EN" "http://www.w3.org/Graphics/SVG/1.1/DTD/svg11.dtd"><svg width="100%" height="100%" viewBox="0 0 20 20" version="1.1" xmlns="http://www.w3.org/2000/svg" xmlns:xlink="http://www.w3.org/1999/xlink" xml:space="preserve" xmlns:serif="http://www.serif.com/" style="fill-rule:evenodd;clip-rule:evenodd;stroke-linejoin:round;stroke-miterlimit:2;"><path d="M6.272,13.577l0,-4.144c0,-1.838 1.49,-3.328 3.328,-3.328c-0,-0 0,-0 0,-0c1.838,-0 3.328,1.49 3.328,3.328c-0,1.993 -0,4.144 -0,4.144l3.963,-0l-0,-4.493c-0,-3.896 -3.158,-7.054 -7.054,-7.054l-0.474,0c-3.896,0 -7.054,3.158 -7.054,7.054l0,4.493l3.963,-0Z" style="fill:#fff;fill-opacity:0.6;"/><rect x="2.309" y="15.415" width="14.581" height="1.346" style="fill:#fff;fill-opacity:0.3;"/><rect x="2.309" y="10.141" width="3.969" height="3.436" style="fill:#fff;"/><rect x="12.921" y="10.141" width="3.969" height="3.436" style="fill:#fff;"/></svg>