<?xml version="1.0" encoding="UTF-8" standalone="no"?><!DOCTYPE svg PUBLIC "-//W3C//DTD SVG 1.1//EN" "http://www.w3.org/Graphics/SVG/1.1/DTD/svg11.dtd"><svg width="100%" height="100%" viewBox="0 0 20 20" version="1.1" xmlns="http://www.w3.org/2000/svg" xmlns:xlink="http://www.w3.org/1999/xlink" xml:space="preserve" xmlns:serif="http://www.serif.com/" style="fill-rule:evenodd;clip-rule:evenodd;stroke-linejoin:round;stroke-miterlimit:2;"><path d="M3.327,8.783c0.24,0 0.435,-0.194 0.435,-0.434l-0,-0.575c-0,-0.115 0.045,-0.226 0.127,-0.307c0.082,-0.082 0.192,-0.127 0.307,-0.127c0.191,-0 0.414,-0 0.605,-0c0.115,-0 0.226,0.045 0.308,0.127c0.081,0.081 0.127,0.192 0.127,0.307c-0,0.182 -0,0.393 -0,0.575c-0,0.115 0.046,0.225 0.127,0.307c0.082,0.082 0.192,0.127 0.308,0.127c0.23,0 0.511,0 0.741,0c0.115,0 0.226,-0.045 0.307,-0.127c0.082,-0.082 0.127,-0.192 0.127,-0.307c0,-0.182 0,-0.393 0,-0.575c0,-0.115 0.046,-0.226 0.128,-0.307c0.081,-0.082 0.192,-0.127 0.307,-0.127c0.191,-0 0.414,-0 0.605,-0c0.115,-0 0.226,0.045 0.307,0.127c0.082,0.081 0.128,0.192 0.128,0.307c-0,0.182 -0,0.393 -0,0.575c-0,0.115 0.046,0.225 0.127,0.307c0.082,0.082 0.192,0.127 0.307,0.127c0.072,0 0.145,0 0.214,0c0.194,0 0.364,-0.128 0.418,-0.314c0.444,-1.488 1.825,-2.573 3.457,-2.573c1.463,0 2.723,0.871 3.291,2.122c0.08,0.182 0.26,0.298 0.458,0.298c-0,0.003 0,0.003 0,0.003c0.314,0 0.569,0.254 0.569,0.568c-0,0.376 -0,0.867 -0,1.242c-0,0.314 -0.255,0.569 -0.569,0.569c0,-0 -0,-0 -0.001,-0c-0.198,-0 -0.379,0.117 -0.459,0.299c-0.566,1.252 -1.826,2.123 -3.289,2.123c-1.55,0 -2.874,-0.978 -3.386,-2.352c-0.061,-0.171 -0.224,-0.285 -0.406,-0.285c-1.179,-0.002 -5.35,-0.002 -6.713,-0.002c-0.115,-0 -0.226,-0.046 -0.308,-0.128c-0.081,-0.081 -0.127,-0.192 -0.127,-0.307c0,-0.254 0,-0.574 0,-0.828c0,-0.24 0.195,-0.435 0.435,-0.435c0.297,0 0.69,0 0.988,0Zm7.757,0.725c0,-0.971 0.789,-1.76 1.76,-1.76c0.971,0 1.76,0.789 1.76,1.76c0,0.972 -0.789,1.76 -1.76,1.76c-0.971,0 -1.76,-0.788 -1.76,-1.76Z" style="fill:#fff;"/></svg>