<?xml version="1.0" encoding="UTF-8" standalone="no"?>
<!DOCTYPE svg PUBLIC "-//W3C//DTD SVG 1.1//EN" "http://www.w3.org/Graphics/SVG/1.1/DTD/svg11.dtd">
<svg width="100%" height="100%" viewBox="0 0 64 64" version="1.1" xmlns="http://www.w3.org/2000/svg" xmlns:xlink="http://www.w3.org/1999/xlink" xml:space="preserve" xmlns:serif="http://www.serif.com/" style="fill-rule:evenodd;clip-rule:evenodd;stroke-linejoin:round;stroke-miterlimit:2;">
    <g transform="matrix(0.510564,0.510564,-0.505409,0.505409,34.7789,-1.39152)">
        <path d="M24.499,13.486C25.314,13.486 26.096,13.809 26.672,14.385C27.248,14.962 27.571,15.743 27.571,16.558C27.571,17.79 27.571,19.241 27.571,20.616C27.571,21.938 27.046,23.206 26.112,24.14C25.177,25.075 23.91,25.6 22.588,25.6C19.796,25.6 16.317,25.6 13.482,25.6C10.581,25.6 8.229,27.952 8.229,30.853C8.229,31.109 8.229,31.36 8.229,31.602C8.229,32.273 8.495,32.917 8.97,33.392C9.445,33.867 10.089,34.133 10.76,34.133C19,34.133 45,34.133 53.24,34.133C53.911,34.133 54.555,33.867 55.03,33.392C55.505,32.917 55.771,32.273 55.771,31.602C55.771,31.36 55.771,31.109 55.771,30.853C55.771,27.952 53.419,25.6 50.518,25.6C47.683,25.6 44.204,25.6 41.412,25.6C40.09,25.6 38.823,25.075 37.888,24.14C36.954,23.206 36.429,21.938 36.429,20.616C36.429,19.241 36.429,17.79 36.429,16.558C36.429,15.743 36.752,14.962 37.328,14.385C37.904,13.809 38.686,13.486 39.501,13.486C39.591,13.486 39.681,13.486 39.772,13.486C42.433,13.486 44.59,11.329 44.59,8.668L44.59,8.666C44.59,7.388 44.083,6.162 43.179,5.259C42.276,4.355 41.05,3.848 39.772,3.848L24.228,3.848C22.95,3.848 21.724,4.355 20.821,5.259C19.917,6.162 19.41,7.388 19.41,8.666L19.41,8.668C19.41,11.329 21.567,13.486 24.228,13.486L24.499,13.486Z" style="fill:white;"/>
    </g>
    <g transform="matrix(0.214076,0.214076,-0.827892,0.827892,29.0419,22.179)">
        <path d="M46.076,4.419L23.257,4.419L23.257,18.902C23.257,20.425 24.861,21.919 27.898,23.224C31.057,24.582 34.667,26.133 34.667,26.133C34.667,26.133 38.277,24.582 41.436,23.224C44.472,21.919 46.076,20.425 46.076,18.902C46.076,14.287 46.076,4.419 46.076,4.419Z" style="fill:white;fill-opacity:0.6;"/>
    </g>
</svg>
