<?xml version="1.0" encoding="UTF-8" standalone="no"?>
<!DOCTYPE svg PUBLIC "-//W3C//DTD SVG 1.1//EN" "http://www.w3.org/Graphics/SVG/1.1/DTD/svg11.dtd">
<svg width="100%" height="100%" viewBox="0 0 80 80" version="1.1" xmlns="http://www.w3.org/2000/svg" xmlns:xlink="http://www.w3.org/1999/xlink" xml:space="preserve" xmlns:serif="http://www.serif.com/" style="fill-rule:evenodd;clip-rule:evenodd;stroke-linejoin:round;stroke-miterlimit:2;">
    <path d="M73.53,16.358C73.916,15.276 73.65,14.069 72.844,13.25C72.039,12.431 70.836,12.143 69.748,12.51C56.547,16.96 24.399,27.797 8.65,33.105C7.273,33.57 6.332,34.846 6.297,36.3C6.261,37.753 7.138,39.074 8.491,39.605C13.364,41.518 18.928,43.702 21.467,44.699C22.302,45.026 22.835,45.849 22.793,46.745C22.652,49.757 22.322,56.803 22.026,63.145C21.93,65.181 23.072,67.074 24.918,67.939C26.764,68.804 28.949,68.471 30.453,67.095C33.685,64.137 37.024,61.083 39.027,59.25C39.486,58.83 40.107,58.636 40.723,58.721C41.339,58.805 41.886,59.159 42.215,59.686C43.657,61.997 46.032,65.802 48.117,69.143C48.896,70.392 50.321,71.085 51.785,70.926C53.248,70.768 54.492,69.786 54.986,68.4C59.674,55.244 69.298,28.236 73.53,16.358ZM26.384,62.244C26.367,62.513 26.521,62.763 26.768,62.868C27.015,62.973 27.302,62.91 27.483,62.711C33.092,56.552 56.557,30.782 65.247,21.239C65.446,21.02 65.451,20.686 65.257,20.461C65.064,20.237 64.733,20.192 64.487,20.357C55.484,26.396 34.052,40.772 28.715,44.351C27.946,44.867 27.46,45.711 27.4,46.635C27.178,50.049 26.627,58.522 26.384,62.244Z" style="fill:white;"/>
</svg>
