<?xml version="1.0" encoding="UTF-8" standalone="no"?>
<!DOCTYPE svg PUBLIC "-//W3C//DTD SVG 1.1//EN" "http://www.w3.org/Graphics/SVG/1.1/DTD/svg11.dtd">
<svg width="100%" height="100%" viewBox="0 0 64 64" version="1.1" xmlns="http://www.w3.org/2000/svg" xmlns:xlink="http://www.w3.org/1999/xlink" xml:space="preserve" xmlns:serif="http://www.serif.com/" style="fill-rule:evenodd;clip-rule:evenodd;stroke-linejoin:round;stroke-miterlimit:2;">
    <g transform="matrix(1,0,0,1,0,-1.98105)">
        <path d="M8.049,24.384L8.049,51.714C8.049,53.846 9.777,55.575 11.91,55.575C20.444,55.575 42.194,55.575 50.729,55.575C52.861,55.575 54.589,53.846 54.589,51.714C54.589,44.835 54.589,31.17 54.589,31.17L17.919,31.17L54.057,22.722C54.057,22.722 52.777,17.246 52.041,14.099C51.907,13.527 51.552,13.031 51.052,12.721C50.553,12.411 49.95,12.312 49.378,12.445C41.904,14.193 17.177,19.974 9.703,21.721C9.13,21.855 8.634,22.211 8.324,22.71C8.014,23.21 7.915,23.812 8.049,24.384ZM52.661,33.181L49.532,33.181L46.719,41.984L52.661,41.984L52.661,33.181ZM24.446,33.181L17.418,33.181L14.604,41.984L21.632,41.984L24.446,33.181ZM35.15,33.181L28.123,33.181L25.309,41.984L32.337,41.984L35.15,33.181ZM45.855,33.181L38.828,33.181L36.014,41.984L43.042,41.984L45.855,33.181ZM13.074,23.32L19.917,21.72L24.39,28.493L17.547,30.093L13.074,23.32ZM23.498,20.883L30.341,19.283L34.813,26.056L27.97,27.656L23.498,20.883ZM33.921,18.446L40.764,16.846L45.237,23.619L38.394,25.219L33.921,18.446ZM50.322,14.612L44.345,16.009L48.818,22.782L52.055,22.025L50.322,14.612Z" style="fill:white;"/>
    </g>
</svg>
