<?xml version="1.0" encoding="UTF-8" standalone="no"?>
<!DOCTYPE svg PUBLIC "-//W3C//DTD SVG 1.1//EN" "http://www.w3.org/Graphics/SVG/1.1/DTD/svg11.dtd">
<svg width="100%" height="100%" viewBox="0 0 80 80" version="1.1" xmlns="http://www.w3.org/2000/svg" xmlns:xlink="http://www.w3.org/1999/xlink" xml:space="preserve" xmlns:serif="http://www.serif.com/" style="fill-rule:evenodd;clip-rule:evenodd;stroke-linejoin:round;stroke-miterlimit:2;">
    <g>
        <path d="M40,8.583C57.34,8.583 71.417,22.66 71.417,40C71.417,57.34 57.34,71.417 40,71.417C22.66,71.417 8.583,57.34 8.583,40C8.583,22.66 22.66,8.583 40,8.583ZM40,12.672C55.083,12.672 67.328,24.917 67.328,40C67.328,55.083 55.083,67.328 40,67.328C24.917,67.328 12.672,55.083 12.672,40C12.672,24.917 24.917,12.672 40,12.672Z" style="fill:white;fill-opacity:0.6;"/>
        <path d="M40,15.927C53.286,15.927 64.073,26.714 64.073,40C64.073,53.286 53.286,64.073 40,64.073C26.714,64.073 15.927,53.286 15.927,40C15.927,26.714 26.714,15.927 40,15.927ZM52.314,30.459C52.314,29.837 52.067,29.241 51.628,28.802C51.188,28.363 50.593,28.116 49.971,28.116C48.823,28.116 47.445,28.116 46.297,28.116C45.675,28.116 45.079,28.363 44.64,28.802C44.201,29.241 43.954,29.837 43.954,30.459C43.954,35.008 43.954,44.992 43.954,49.541C43.954,50.163 44.201,50.759 44.64,51.198C45.079,51.637 45.675,51.884 46.297,51.884C47.445,51.884 48.823,51.884 49.971,51.884C50.593,51.884 51.188,51.637 51.628,51.198C52.067,50.759 52.314,50.163 52.314,49.541C52.314,44.992 52.314,35.008 52.314,30.459ZM36.344,30.459C36.344,29.837 36.097,29.241 35.657,28.802C35.218,28.363 34.622,28.116 34.001,28.116C32.853,28.116 31.474,28.116 30.326,28.116C29.705,28.116 29.109,28.363 28.67,28.802C28.231,29.241 27.984,29.837 27.984,30.459C27.984,35.008 27.984,44.992 27.984,49.541C27.984,50.163 28.231,50.759 28.67,51.198C29.109,51.637 29.705,51.884 30.326,51.884C31.474,51.884 32.853,51.884 34.001,51.884C34.622,51.884 35.218,51.637 35.657,51.198C36.097,50.759 36.344,50.163 36.344,49.541C36.344,44.992 36.344,35.008 36.344,30.459Z" style="fill:white;"/>
    </g>
</svg>
