<?xml version="1.0" encoding="UTF-8" standalone="no"?>
<!DOCTYPE svg PUBLIC "-//W3C//DTD SVG 1.1//EN" "http://www.w3.org/Graphics/SVG/1.1/DTD/svg11.dtd">
<svg width="100%" height="100%" viewBox="0 0 80 80" version="1.1" xmlns="http://www.w3.org/2000/svg" xmlns:xlink="http://www.w3.org/1999/xlink" xml:space="preserve" xmlns:serif="http://www.serif.com/" style="fill-rule:evenodd;clip-rule:evenodd;stroke-linecap:round;stroke-linejoin:round;stroke-miterlimit:1.5;">
    <g transform="matrix(3.29489,0,0,3.00468,-1028.28,-14.4552)">
        <g>
            <g transform="matrix(0.691444,0,0,0.712922,309.968,5.14831)">
                <path d="M29,21.959C29,21.959 29,17.318 29,13.62C29,12.654 28.61,11.734 27.929,11.094C26.122,9.397 22.523,6.016 21.039,4.622C20.613,4.221 20.063,4 19.493,4C16.088,4 14.427,4 10.707,4C9.989,4 9.301,4.312 8.793,4.866C8.285,5.421 8,6.174 8,6.958C8,12.152 8,22.848 8,28.042C8,28.826 8.285,29.579 8.793,30.134C9.301,30.688 9.989,31 10.707,31C13.171,31 18.861,31 22.342,31" style="fill:none;stroke:white;stroke-width:1.81px;"/>
            </g>
            <g transform="matrix(1.00593,0,0,1.0379,303.614,2.1646)">
                <path d="M22,7.381L22,12L26.251,12" style="fill:none;stroke:white;stroke-width:1.24px;"/>
            </g>
        </g>
    </g>
    <g transform="matrix(1.27545,0,0,1.483,-5.70667,15.5143)">
        <rect x="20" y="14" width="19" height="3" style="fill:white;"/>
    </g>
    <g transform="matrix(1.06304,0,0,1.483,-1.45846,29.5453)">
        <rect x="20" y="14" width="19" height="3" style="fill:white;"/>
    </g>
    <g transform="matrix(1,0,0,1.46268,-1.11608,-38.3743)">
        <path d="M57.742,65.229C56.689,65.229 55.679,64.943 54.934,64.434C54.189,63.924 53.77,63.234 53.77,62.513C53.77,60.822 53.77,58.701 53.77,57.256C53.77,56.339 52.682,55.595 51.34,55.595C51.34,55.595 51.339,55.595 51.339,55.595C49.997,55.595 48.909,56.339 48.909,57.256C48.909,59.14 48.909,62.298 48.909,64.973C48.909,66.253 49.652,67.48 50.976,68.385C52.299,69.29 54.094,69.798 55.966,69.798L65.96,69.798L65.96,65.229L57.742,65.229Z" style="fill:white;"/>
    </g>
    <g transform="matrix(7.90232e-17,1.29055,-0.675091,4.13374e-17,109.167,-29.1072)">
        <path d="M69.077,51.106C69.077,51.106 72.441,57.833 74.593,62.139C74.894,62.741 74.978,63.628 74.807,64.393C74.636,65.159 74.242,65.655 73.807,65.656C71.149,65.656 67.005,65.656 64.347,65.656C63.912,65.655 63.518,65.159 63.347,64.393C63.176,63.628 63.26,62.741 63.561,62.139C65.713,57.833 69.077,51.106 69.077,51.106Z" style="fill:white;"/>
    </g>
</svg>
