<?xml version="1.0" encoding="UTF-8" standalone="no"?>
<!DOCTYPE svg PUBLIC "-//W3C//DTD SVG 1.1//EN" "http://www.w3.org/Graphics/SVG/1.1/DTD/svg11.dtd">
<svg width="100%" height="100%" viewBox="0 0 38 38" version="1.1" xmlns="http://www.w3.org/2000/svg" xmlns:xlink="http://www.w3.org/1999/xlink" xml:space="preserve" xmlns:serif="http://www.serif.com/" style="fill-rule:evenodd;clip-rule:evenodd;stroke-linecap:round;stroke-linejoin:round;stroke-miterlimit:1.5;">
    <rect id="画板1" x="0" y="0" width="38" height="38" style="fill:none;"/>
    <g id="画板11" serif:id="画板1">
        <g transform="matrix(1,0,0,1.04167,1,-1.33333)">
            <path d="M17,8L9.881,8C7.738,8 6,9.668 6,11.726C6,16.231 6,23.769 6,28.274C6,30.332 7.738,32 9.881,32L27.119,32C29.262,32 31,30.332 31,28.274C31,25.083 31,21 31,21" style="fill:none;stroke:white;stroke-width:3.26px;"/>
        </g>
        <g transform="matrix(0.811679,0.584104,-0.54737,0.760634,5.97922,-12.4436)">
            <path d="M35,0L27,0L27,20L31.111,26L35,20L35,0Z" style="fill:none;stroke:white;stroke-width:3.44px;"/>
        </g>
    </g>
</svg>
